<?xml version="1.0" encoding="utf-8"?>
<!-- Generator: Adobe Illustrator 16.0.0, SVG Export Plug-In . SVG Version: 6.00 Build 0)  -->
<!DOCTYPE svg PUBLIC "-//W3C//DTD SVG 1.1//EN" "http://www.w3.org/Graphics/SVG/1.1/DTD/svg11.dtd">
<svg version="1.1" id="Layer_1" xmlns="http://www.w3.org/2000/svg" xmlns:xlink="http://www.w3.org/1999/xlink" x="0px" y="0px"
	 width="427.32px" height="422.68px" viewBox="0 0 427.32 422.68" enable-background="new 0 0 427.32 422.68" xml:space="preserve">
<g>
	<g>
		<g>
			<g>
				<path fill="#F5F5F5" d="M334.86,418.27c-22.11-15.449-27.13-44.119-26.25-69.89c0.149-4.3-0.33-8.84,1.72-12.61
					c2.05-3.77,6.82-6.35,10.67-4.539c3.2,1.5,4.59,5.22,6.38,8.289c2.38,4.09,5.92,7.471,10.09,9.641c2.74,1.42,6.13,2.29,8.83,0.8
					c3.71-2.05,4.15-7.17,4.12-11.45c-0.05-7.98-0.1-15.949-0.15-23.92c-0.029-4.279-0.039-8.65,1.29-12.71
					c1.33-4.06,4.271-7.83,8.341-8.97c4.069-1.141,9.1,1.21,9.96,5.39c0.359,1.74,0,3.55,0.12,5.33c0.119,1.78,0.949,3.74,2.63,4.24
					c1.71,0.5,3.42-0.71,4.699-1.96c4.421-4.32,7.41-9.891,10.21-15.42c2.801-5.53,5.521-11.2,9.53-15.91s9.55-8.45,15.681-8.79
					c6.13-0.351,12.659,3.44,14.21,9.45c1.55,6.029-1.971,12.15-5.801,17.04c-5.68,7.25-12.399,13.649-19.89,18.96
					c-1.35,0.96-2.81,1.99-3.33,3.58c-0.93,2.85,1.771,5.689,4.59,6.619c3.19,1.061,6.65,0.73,9.99,1.121
					c3.34,0.39,6.95,1.859,8.21,5.02c1.75,4.37-1.91,8.96-5.5,11.96c-7.21,6.01-15.44,10.76-24.22,13.979
					c-3.15,1.15-6.46,2.16-9,4.371c-2.54,2.209-4.07,6.06-2.54,9.069c1.53,3.021,5.47,3.979,8.77,3.37c3.3-0.61,6.25-2.4,9.391-3.59
					c5.88-2.221,13.47-1.811,17.239,3.27c2.48,3.34,2.69,7.99,1.44,11.971c-1.25,3.979-3.79,7.41-6.49,10.58
					c-9.42,11.06-21.49,19.959-35.13,24.689C361.05,421.95,348.42,423.23,334.86,418.27"/>
			</g>
		</g>
	</g>
</g>
<g>
	<g>
		<g>
			<g>
				<g>
					<path fill="#E0E0E0" d="M341.51,402.12c3.79-13.011,9.13-26.92,15.221-41.28c1.529-3.58,3.05-7.13,4.539-10.619
						c1.5-3.48,2.99-6.931,4.65-10.221c3.3-6.59,6.97-12.67,10.64-18.34c3.671-5.67,7.351-10.92,10.83-15.79
						c3.5-4.87,6.841-9.36,10.061-13.31c6.42-7.94,12.34-13.711,16.569-17.511c2.11-1.909,3.801-3.33,4.95-4.28
						c0.561-0.449,0.99-0.81,1.32-1.069c0.3-0.24,0.46-0.351,0.47-0.341c0.011,0.011-0.13,0.15-0.42,0.41
						c-0.32,0.28-0.74,0.66-1.27,1.131c-1.12,0.99-2.771,2.449-4.851,4.39c-4.16,3.87-10,9.68-16.34,17.64
						c-3.18,3.971-6.49,8.461-9.96,13.34c-3.46,4.891-7.12,10.141-10.76,15.811c-3.641,5.66-7.29,11.73-10.561,18.29
						c-1.649,3.271-3.119,6.69-4.619,10.18c-1.49,3.49-3.011,7.03-4.54,10.61c-6.08,14.35-11.431,28.22-15.25,41.18"/>
				</g>
			</g>
		</g>
	</g>
</g>
<g>
	<g>
		<g>
			<g>
				<g>
					<path fill="#E0E0E0" d="M366.15,339.971c-0.051,0.01-0.2-0.641-0.42-1.83c-0.221-1.181-0.49-2.9-0.79-5.041
						c-0.601-4.26-1.24-10.17-1.91-16.689c-0.681-6.52-1.391-12.41-2.061-16.65c-0.33-2.119-0.609-3.83-0.819-5.02
						c-0.2-1.18-0.29-1.85-0.24-1.86c0.05-0.01,0.24,0.63,0.54,1.79c0.3,1.17,0.67,2.87,1.069,4.98
						c0.811,4.229,1.62,10.13,2.29,16.66c0.65,6.439,1.24,12.26,1.69,16.709c0.21,2.011,0.4,3.701,0.54,5.061
						C366.16,339.3,366.21,339.96,366.15,339.971z"/>
				</g>
			</g>
		</g>
	</g>
</g>
<g>
	<g>
		<g>
			<g>
				<g>
					<path fill="#E0E0E0" d="M421.17,329.689c0,0.051-0.78,0.15-2.189,0.261c-1.41,0.13-3.461,0.3-5.971,0.59
						c-5.04,0.54-11.97,1.54-19.58,2.97c-7.6,1.45-14.43,3.051-19.33,4.35c-2.46,0.631-4.43,1.201-5.8,1.58
						c-1.37,0.391-2.13,0.58-2.149,0.531c-0.021-0.051,0.72-0.341,2.06-0.82c1.34-0.471,3.3-1.121,5.74-1.83
						c4.88-1.44,11.71-3.141,19.33-4.59c7.62-1.44,14.6-2.351,19.67-2.75c2.53-0.221,4.59-0.311,6.01-0.34
						C420.38,329.62,421.16,329.63,421.17,329.689z"/>
				</g>
			</g>
		</g>
	</g>
</g>
<g>
	<g>
		<g>
			<g>
				<g>
					<path fill="#E0E0E0" d="M342.19,401.1c-0.021,0.01-0.15-0.22-0.381-0.67c-0.25-0.539-0.56-1.199-0.939-1.99
						c-0.811-1.729-1.92-4.27-3.24-7.42c-2.649-6.299-6.05-15.119-9.66-24.91c-3.609-9.789-6.92-18.629-9.439-24.979
						c-1.23-3.09-2.25-5.62-3.011-7.51c-0.319-0.82-0.59-1.49-0.81-2.05c-0.18-0.471-0.26-0.721-0.229-0.74
						c0.029-0.01,0.149,0.22,0.38,0.67c0.25,0.54,0.56,1.189,0.939,1.99c0.811,1.73,1.92,4.27,3.24,7.42
						c2.65,6.3,6.05,15.119,9.66,24.91c3.609,9.789,6.92,18.63,9.439,24.97c1.24,3.08,2.25,5.63,3,7.51
						c0.32,0.82,0.591,1.5,0.811,2.05C342.13,400.84,342.21,401.09,342.19,401.1z"/>
				</g>
			</g>
		</g>
	</g>
</g>
<g>
	<g>
		<g>
			<g>
				<g>
					<path fill="#E0E0E0" d="M415.29,377.54c0.01,0.03-0.24,0.13-0.73,0.3c-0.569,0.189-1.27,0.43-2.119,0.71
						c-1.96,0.64-4.61,1.49-7.83,2.54c-6.61,2.141-15.7,5.21-25.75,8.61c-10.051,3.399-19.181,6.39-25.841,8.39
						c-3.329,1-6.029,1.79-7.909,2.29c-0.87,0.229-1.58,0.42-2.17,0.57c-0.5,0.12-0.761,0.17-0.771,0.149
						c-0.01-0.02,0.24-0.129,0.73-0.3c0.569-0.19,1.27-0.42,2.119-0.71c1.961-0.64,4.61-1.49,7.83-2.54
						c6.61-2.14,15.71-5.21,25.75-8.61c10.04-3.399,19.181-6.39,25.83-8.39c3.33-1.01,6.03-1.79,7.91-2.3
						c0.87-0.23,1.58-0.42,2.17-0.57C415.02,377.57,415.28,377.52,415.29,377.54z"/>
				</g>
			</g>
		</g>
	</g>
</g>
<g>
	<g>
		<path fill="#E0E0E0" d="M386.56,62.53l0.061,2.52c0,0-13.78-4.59-21.47,0.12l0,0c-0.24,0.53-0.721,0.91-1.301,1l-3.29,0.55
			c-0.71,0.1-1.42-0.25-1.77-0.88l0,0c0,0-8.19-3.14-16.021,1.79l-2.989,1.64l3.63-32.33l37.609-10.23L386.56,62.53z"/>
	</g>
	<g>
		<path fill="#EBEBEB" d="M388.43,58.84l0.221,4.54c0,0-13.82-6.89-26.45,2.27l1.71-21.98C363.92,43.67,387.07,54.32,388.43,58.84z"
			/>
	</g>
	<g>
		<path fill="#F5F5F5" d="M388.43,25.93c0,0-16.79-10.99-27.479,6.96l1.25,32.76c0,0,13.38-15.83,27.78-5.94L388.43,25.93z"/>
	</g>
	<g>
		<path fill="#EBEBEB" d="M362.2,65.65c0,0-14.34-7.68-23.521,2.32l0.58-30.05l21.73-3.9L362.2,65.65z"/>
	</g>
	<g>
		<path fill="#F5F5F5" d="M360.97,32.91c0,0-6.16-8.34-17.479-7.25l-7.5,1.07l-1.5,30.23c0,0,19.08-3.87,27.729,8.71L360.97,32.91z"
			/>
	</g>
	<g>
		<g>
			<path fill="#E0E0E0" d="M362.2,65.65c0.04,0,0.05-0.46,0.04-1.29c-0.021-0.94-0.04-2.11-0.07-3.5
				c-0.1-3.07-0.229-7.09-0.38-11.54c-0.15-4.45-0.28-8.47-0.38-11.54c-0.04-1.39-0.08-2.561-0.11-3.5
				c-0.03-0.83-0.069-1.28-0.1-1.28c-0.04,0-0.07,0.46-0.101,1.28c-0.04,0.83-0.05,2.02-0.06,3.5c-0.01,2.96,0.07,7.04,0.22,11.56
				c0.15,4.51,0.351,8.59,0.53,11.54c0.09,1.48,0.17,2.67,0.24,3.49C362.11,65.19,362.16,65.65,362.2,65.65z"/>
		</g>
	</g>
	<g>
		<g>
			<path fill="#E0E0E0" d="M342.94,30.54c0.02,0.09,1.02-0.17,2.64-0.27s3.9,0.06,6.26,0.84c2.351,0.8,4.271,2.04,5.5,3.1
				c1.24,1.06,1.87,1.87,1.95,1.81c0.03-0.02-0.11-0.24-0.38-0.62c-0.26-0.38-0.71-0.89-1.32-1.47c-1.2-1.16-3.149-2.51-5.58-3.33
				c-2.439-0.81-4.8-0.92-6.46-0.71c-0.83,0.1-1.489,0.23-1.939,0.38C343.17,30.42,342.93,30.51,342.94,30.54z"/>
		</g>
	</g>
	<g>
		<g>
			<path fill="#E0E0E0" d="M342.36,34c0.02,0.09,1.02-0.17,2.64-0.27s3.9,0.06,6.26,0.84c2.351,0.8,4.271,2.04,5.5,3.1
				c1.24,1.06,1.87,1.87,1.95,1.81c0.03-0.02-0.11-0.24-0.38-0.62c-0.271-0.38-0.71-0.89-1.32-1.47c-1.2-1.16-3.149-2.51-5.58-3.33
				c-2.439-0.81-4.8-0.92-6.46-0.71c-0.83,0.1-1.489,0.23-1.939,0.38C342.59,33.88,342.35,33.97,342.36,34z"/>
		</g>
	</g>
	<g>
		<g>
			<path fill="#E0E0E0" d="M342.44,37.73c0.02,0.09,1.02-0.17,2.64-0.27s3.9,0.06,6.26,0.84c2.351,0.8,4.271,2.04,5.5,3.1
				c1.24,1.06,1.87,1.87,1.95,1.81c0.03-0.02-0.11-0.24-0.38-0.62c-0.26-0.38-0.71-0.89-1.32-1.47c-1.2-1.16-3.149-2.51-5.58-3.33
				c-2.439-0.81-4.8-0.92-6.46-0.71c-0.83,0.1-1.489,0.23-1.939,0.38C342.67,37.6,342.43,37.69,342.44,37.73z"/>
		</g>
	</g>
	<g>
		<g>
			<path fill="#E0E0E0" d="M342,41.22c0.02,0.09,1.02-0.17,2.64-0.27c1.62-0.1,3.9,0.06,6.261,0.84c2.35,0.8,4.27,2.04,5.5,3.1
				c1.239,1.06,1.869,1.87,1.949,1.81c0.03-0.02-0.109-0.24-0.38-0.62c-0.26-0.38-0.71-0.89-1.319-1.47
				c-1.2-1.16-3.15-2.51-5.58-3.33c-2.44-0.811-4.8-0.92-6.46-0.71c-0.83,0.1-1.49,0.23-1.94,0.38
				C342.23,41.1,341.99,41.19,342,41.22z"/>
		</g>
	</g>
	<g>
		<g>
			<path fill="#E0E0E0" d="M341.47,44.91c0.021,0.09,1.021-0.17,2.641-0.27s3.899,0.06,6.26,0.84c2.35,0.8,4.27,2.04,5.5,3.1
				c1.24,1.06,1.87,1.87,1.95,1.81c0.029-0.02-0.11-0.24-0.38-0.62c-0.271-0.38-0.71-0.89-1.32-1.47c-1.2-1.16-3.15-2.51-5.58-3.33
				c-2.44-0.81-4.8-0.92-6.46-0.71c-0.83,0.1-1.49,0.23-1.94,0.38C341.7,44.79,341.46,44.88,341.47,44.91z"/>
		</g>
	</g>
	<g>
		<g>
			<path fill="#E0E0E0" d="M340.72,49.06c0.021,0.09,1.101-0.2,2.88-0.27c0.891-0.06,1.94,0.01,3.11,0.12
				c1.16,0.15,2.43,0.39,3.73,0.77c1.29,0.4,2.489,0.89,3.54,1.41c1.029,0.56,1.939,1.1,2.63,1.66c1.409,1.08,2.08,1.97,2.159,1.91
				c0.03-0.02-0.119-0.26-0.43-0.66c-0.149-0.21-0.35-0.44-0.609-0.7c-0.25-0.27-0.54-0.56-0.891-0.84c-0.68-0.61-1.59-1.2-2.63-1.8
				c-1.06-0.56-2.29-1.08-3.61-1.48c-1.329-0.39-2.64-0.62-3.829-0.75c-1.2-0.09-2.28-0.11-3.19,0c-0.45,0.03-0.86,0.1-1.21,0.17
				c-0.36,0.06-0.66,0.12-0.9,0.2C340.97,48.92,340.71,49.02,340.72,49.06z"/>
		</g>
	</g>
	<g>
		<g>
			<path fill="#E0E0E0" d="M340.81,52.32c0.021,0.1,1.11-0.2,2.891-0.24c0.89-0.04,1.95,0.05,3.12,0.19
				c1.16,0.19,2.42,0.47,3.72,0.9c1.29,0.44,2.47,0.98,3.51,1.53c1.021,0.59,1.92,1.15,2.601,1.72c1.399,1.11,2.08,2,2.159,1.93
				c0.03-0.02-0.119-0.26-0.43-0.67c-0.149-0.21-0.35-0.44-0.6-0.7c-0.25-0.27-0.53-0.56-0.88-0.86c-0.67-0.62-1.57-1.24-2.601-1.86
				c-1.05-0.59-2.26-1.15-3.58-1.6c-1.319-0.43-2.63-0.71-3.819-0.88c-1.2-0.12-2.29-0.18-3.2-0.08c-0.46,0.02-0.86,0.08-1.22,0.15
				c-0.36,0.05-0.66,0.12-0.91,0.2C341.07,52.19,340.8,52.29,340.81,52.32z"/>
		</g>
	</g>
	<g>
		<g>
			<path fill="#E0E0E0" d="M366.17,56.89c0.08,0.05,0.69-0.93,2.01-2.21c1.301-1.28,3.4-2.81,6.061-3.64
				c2.67-0.83,5.26-0.77,7.05-0.45c1.81,0.31,2.87,0.77,2.91,0.68c0.01-0.03-0.24-0.18-0.72-0.39c-0.48-0.21-1.2-0.46-2.12-0.66
				c-1.82-0.42-4.511-0.55-7.29,0.311c-2.771,0.86-4.91,2.5-6.17,3.88c-0.641,0.69-1.091,1.3-1.37,1.75
				C366.26,56.61,366.14,56.88,366.17,56.89z"/>
		</g>
	</g>
	<g>
		<g>
			<path fill="#E0E0E0" d="M366.11,52.68c0.08,0.05,0.689-0.93,2.01-2.21c1.3-1.28,3.399-2.8,6.06-3.64
				c2.67-0.83,5.261-0.77,7.051-0.45c1.81,0.31,2.869,0.77,2.909,0.68c0.011-0.03-0.239-0.18-0.72-0.39
				c-0.479-0.21-1.2-0.46-2.12-0.66c-1.819-0.42-4.51-0.55-7.28,0.31c-2.77,0.86-4.909,2.5-6.17,3.88
				c-0.64,0.69-1.09,1.3-1.369,1.75C366.2,52.4,366.08,52.66,366.11,52.68z"/>
		</g>
	</g>
	<g>
		<g>
			<path fill="#E0E0E0" d="M366.05,48.46c0.08,0.05,0.69-0.93,2.01-2.21c1.301-1.28,3.4-2.8,6.061-3.64
				c2.67-0.83,5.26-0.77,7.05-0.45c1.811,0.31,2.87,0.77,2.91,0.68c0.01-0.03-0.24-0.18-0.72-0.39c-0.48-0.21-1.2-0.46-2.12-0.66
				c-1.82-0.42-4.51-0.55-7.29,0.31c-2.771,0.86-4.91,2.5-6.17,3.88c-0.641,0.69-1.09,1.3-1.37,1.75
				C366.14,48.18,366.02,48.45,366.05,48.46z"/>
		</g>
	</g>
	<g>
		<g>
			<path fill="#E0E0E0" d="M365.99,44.25c0.08,0.05,0.689-0.93,2.01-2.21c1.3-1.28,3.4-2.8,6.06-3.64
				c2.671-0.83,5.261-0.77,7.051-0.45c1.81,0.31,2.87,0.77,2.909,0.68c0.011-0.03-0.239-0.18-0.72-0.39
				c-0.479-0.21-1.2-0.46-2.12-0.66c-1.819-0.42-4.51-0.55-7.29,0.31c-2.77,0.86-4.909,2.5-6.17,3.88c-0.64,0.69-1.09,1.3-1.37,1.75
				C366.08,43.97,365.96,44.23,365.99,44.25z"/>
		</g>
	</g>
	<g>
		<g>
			<path fill="#E0E0E0" d="M365.92,40.03c0.08,0.05,0.69-0.93,2.01-2.21c1.301-1.28,3.4-2.8,6.061-3.64
				c2.66-0.84,5.26-0.77,7.05-0.45c1.81,0.31,2.87,0.77,2.91,0.68c0.01-0.03-0.24-0.18-0.72-0.39c-0.48-0.21-1.2-0.46-2.12-0.66
				c-1.82-0.42-4.511-0.55-7.29,0.31c-2.771,0.86-4.91,2.5-6.17,3.88c-0.641,0.69-1.091,1.3-1.37,1.75
				C366.02,39.75,365.89,40.02,365.92,40.03z"/>
		</g>
	</g>
	<g>
		<g>
			<path fill="#E0E0E0" d="M365.86,35.82c0.08,0.05,0.689-0.93,2.01-2.21c1.3-1.28,3.399-2.81,6.06-3.64
				c2.67-0.83,5.261-0.77,7.051-0.45c1.81,0.31,2.869,0.77,2.909,0.68c0.011-0.03-0.239-0.18-0.72-0.39
				c-0.479-0.21-1.2-0.46-2.12-0.66c-1.819-0.42-4.51-0.55-7.29,0.31c-2.77,0.86-4.91,2.5-6.17,3.88c-0.64,0.69-1.09,1.3-1.37,1.75
				C365.95,35.54,365.83,35.8,365.86,35.82z"/>
		</g>
	</g>
</g>
<g id="Background_Simple" display="none">
	<path display="inline" fill="#EBEBEB" d="M353.82,19.31C326.51-7.52,282.75-17.79,247.88-1.97
		c-33.521,15.22-55.88,51.13-91.5,60.45c-15.91,4.16-32.79,2.44-48.95,5.51c-36.47,6.93-65.51,39.5-71.99,76.05
		c-6.48,36.56,2.89,77.47,29.09,103.771c26.2,26.299,85.71,53.659,130.31,43.049l56.7-2.31c99.06-16.44,124.79-84.85,135.28-158.46
		c0.05-0.38,0.109-0.77,0.16-1.15C392.34,87.04,381.13,46.14,353.82,19.31z"/>
	<path display="inline" fill="#EBEBEB" d="M135.23,33.23c5.13-2.2,10.01-5.73,12.21-10.87c2.89-6.76,0.3-15-4.95-20.16
		c-13.2-12.97-35.95-9.63-41.35,9.34C95.5,31.32,120.63,39.49,135.23,33.23z"/>
</g>
<g>
	<path fill="#3D3A4B" d="M417.34,422.42c0,0.14-93.17,0.26-208.07,0.26c-114.94,0-208.1-0.12-208.1-0.26s93.15-0.26,208.1-0.26
		C324.17,422.16,417.34,422.28,417.34,422.42z"/>
</g>
<g>
	<g>
		<g>
			<rect x="295.17" y="239.561" fill="#F5F5F5" width="43.84" height="52.119"/>
		</g>
		<g>
			<rect x="98.55" y="236.16" fill="#D9594C" width="198.13" height="58.8"/>
		</g>
		<g>
			<path fill="#D9594C" d="M340.34,241.1h-48.97v-4.939h48.97c1.37,0,2.47,1.109,2.47,2.47l0,0
				C342.81,240,341.71,241.1,340.34,241.1z"/>
		</g>
		<g>
			<path fill="#D9594C" d="M340.34,294.96h-48.97v-4.94h48.97c1.37,0,2.47,1.11,2.47,2.471l0,0
				C342.81,293.85,341.71,294.96,340.34,294.96z"/>
		</g>
		
			<image overflow="visible" enable-background="new    " width="100" height="246" xlink:href="7EC5A02.png"  transform="matrix(0.2352 0 0 0.239 257.6963 236.1602)">
		</image>
		
			<image overflow="visible" enable-background="new    " width="104" height="246" xlink:href="7EC5A03.png"  transform="matrix(0.2262 0 0 0.239 116.1309 236.1602)">
		</image>
		<g>
			<g>
				<ellipse fill="#E0E0E0" cx="317.82" cy="248.18" rx="21.189" ry="0.26"/>
			</g>
		</g>
		<g>
			<g>
				<ellipse fill="#E0E0E0" cx="317.82" cy="255.99" rx="21.189" ry="0.26"/>
			</g>
		</g>
		<g>
			<g>
				<ellipse fill="#E0E0E0" cx="317.82" cy="265.62" rx="21.189" ry="0.26"/>
			</g>
		</g>
		<g>
			<g>
				<ellipse fill="#E0E0E0" cx="317.82" cy="275.24" rx="21.189" ry="0.26"/>
			</g>
		</g>
		<g>
			<g>
				<ellipse fill="#E0E0E0" cx="317.82" cy="284.86" rx="21.189" ry="0.26"/>
			</g>
		</g>
	</g>
	
		<image overflow="visible" enable-background="new    " width="379" height="50" xlink:href="7EC5A04.png"  transform="matrix(0.2356 0 0 0.216 155.9746 260.3242)">
	</image>
</g>
<g>
	<rect x="294.05" y="296.109" fill="#FAFAFA" width="44.51" height="31.761"/>
</g>
<g>
	<rect x="105.11" y="294.96" fill="#504E5E" width="189.44" height="34.06"/>
</g>
<g>
	<path fill="#504E5E" d="M293.17,297.26h47.84c0.641,0,1.15-0.52,1.15-1.15l0,0c0-0.64-0.521-1.149-1.15-1.149h-47.84V297.26z"/>
</g>
<g>
	<path fill="#504E5E" d="M293.17,329.02h47.84c0.641,0,1.15-0.52,1.15-1.149l0,0c0-0.64-0.521-1.149-1.15-1.149h-47.84V329.02z"/>
</g>
<g>
	<g>
		<ellipse fill="#E0E0E0" cx="316.56" cy="302.14" rx="22.011" ry="0.26"/>
	</g>
</g>
<g>
	<g>
		<ellipse fill="#E0E0E0" cx="316.56" cy="308.15" rx="22.011" ry="0.26"/>
	</g>
</g>
<g>
	<g>
		<ellipse fill="#E0E0E0" cx="316.56" cy="314.16" rx="22.011" ry="0.26"/>
	</g>
</g>
<g>
	<g>
		<ellipse fill="#E0E0E0" cx="316.56" cy="320.17" rx="22.011" ry="0.26"/>
	</g>
</g>
<g>
	<rect x="134.64" y="307.15" fill="#3D3A4B" width="130.639" height="8.89"/>
</g>
<g>
	<g>
		<rect x="299.88" y="332.05" fill="#EBEBEB" width="45.44" height="86.091"/>
	</g>
	<g>
		<rect x="86.61" y="329.02" fill="#D9594C" width="213.27" height="93.341"/>
	</g>
	<g>
		<path fill="#D9594C" d="M348.88,422.36h-54.819v-6.05h54.819c1.67,0,3.03,1.359,3.03,3.029l0,0
			C351.9,421.01,350.55,422.36,348.88,422.36z"/>
	</g>
	<g>
		<path fill="#D9594C" d="M348.88,335.07h-54.819v-6.051h54.819c1.67,0,3.03,1.36,3.03,3.03l0,0
			C351.9,333.721,350.55,335.07,348.88,335.07z"/>
	</g>
	
		<image overflow="visible" enable-background="new    " width="342" height="392" xlink:href="7EC5A05.png"  transform="matrix(0.2358 0 0 0.2382 209.1523 329.0186)">
	</image>
	
		<image overflow="visible" enable-background="new    " width="338" height="392" xlink:href="7EC5A06.png"  transform="matrix(0.2386 0 0 0.2382 138.3892 329.0186)">
	</image>
	<g>
		<g>
			<ellipse fill="#E0E0E0" cx="322.6" cy="343.59" rx="22.721" ry="0.26"/>
		</g>
	</g>
	<g>
		<g>
			<ellipse fill="#E0E0E0" cx="322.6" cy="354.63" rx="22.721" ry="0.26"/>
		</g>
	</g>
	<g>
		<g>
			<ellipse fill="#E0E0E0" cx="322.6" cy="365.67" rx="22.721" ry="0.26"/>
		</g>
	</g>
	<g>
		<g>
			<ellipse fill="#E0E0E0" cx="322.6" cy="376.71" rx="22.721" ry="0.26"/>
		</g>
	</g>
	<g>
		<g>
			<ellipse fill="#E0E0E0" cx="322.6" cy="387.75" rx="22.721" ry="0.26"/>
		</g>
	</g>
	<g>
		<g>
			<ellipse fill="#E0E0E0" cx="322.6" cy="398.79" rx="22.721" ry="0.26"/>
		</g>
	</g>
	<g>
		<g>
			<ellipse fill="#E0E0E0" cx="322.6" cy="409.83" rx="22.721" ry="0.26"/>
		</g>
	</g>
</g>
<g>
	<g>
		<path fill="#D9594C" d="M318.28,78.23L304.36,55.9c-0.311-0.5-1.04-0.49-1.341,0.02l-13.66,23.61L318.28,78.23z"/>
	</g>
	
		<image overflow="visible" enable-background="new    " width="125" height="104" xlink:href="7EC5A01.png"  transform="matrix(0.2323 0 0 0.2331 289.3613 55.5273)">
	</image>
	<g>
		<polygon fill="#EBEBEB" points="304.36,56.96 317.37,78.14 314.06,77.62 292.82,74.28 300.73,57.61 		"/>
	</g>
	<g>
		<path fill="#D9594C" d="M305.75,98.62l12.53-20.39l-32.46-5.97c-1.061-0.19-2.12,0.29-2.67,1.22l-18.301,31.01
			c-0.56,0.95,0,2.18,1.09,2.37l30.5,5.41L305.75,98.62z"/>
	</g>
	<g>
		<polygon fill="#EBEBEB" points="297.09,58.23 315.1,77.73 288.95,72.83 		"/>
	</g>
	<g>
		<g>
			<path fill="#3D3A4B" d="M288.95,72.83c-0.011-0.01,0.03-0.1,0.12-0.29c0.109-0.22,0.24-0.48,0.41-0.8
				c0.399-0.74,0.93-1.74,1.6-2.99c1.43-2.62,3.43-6.27,5.83-10.63l0.15-0.27l0.209,0.23c3.41,3.68,7.44,8.02,11.74,12.66
				c2.19,2.38,4.311,4.68,6.28,6.81l-0.39,0.32c-4.101-5.81-7.66-10.84-10.23-14.48c-1.23-1.77-2.21-3.19-2.93-4.23
				c-0.311-0.47-0.57-0.84-0.771-1.14c-0.17-0.26-0.25-0.4-0.239-0.41c0.01-0.01,0.119,0.12,0.31,0.36c0.22,0.29,0.49,0.65,0.83,1.1
				c0.75,1.02,1.78,2.41,3.05,4.15c2.61,3.61,6.21,8.6,10.38,14.37l-0.39,0.32c-1.971-2.13-4.101-4.43-6.29-6.8
				c-4.28-4.66-8.29-9.02-11.69-12.71l0.36-0.04c-2.46,4.33-4.511,7.94-5.99,10.54c-0.71,1.22-1.29,2.21-1.71,2.93
				c-0.189,0.31-0.34,0.56-0.46,0.76C289.02,72.75,288.96,72.84,288.95,72.83z"/>
		</g>
	</g>
	
		<image overflow="visible" enable-background="new    " width="125" height="92" xlink:href="7EC5A0B.png"  transform="matrix(0.2323 0 0 0.2348 278.3867 81.3086)">
	</image>
</g>
<g>
	<g>
		<g>
			<g>
				<path fill="#504E5E" d="M158.83,383.77l9.53-12.449l0.49-0.65l16.24,12.08l-15.04,16.52l0.55,16.721
					c8.38,2.17,9.63,6.35,9.63,6.35l-17.41-0.02l-15.81-30.461L158.83,383.77z"/>
			</g>
			<g>
				<path fill="#EBEBEB" d="M147.02,391.859l15.81,30.461l17.41,0.02c-0.4-0.96-1.06-1.83-1.96-2.62l-14.16-0.79l-14.6-28.789
					L147.02,391.859z"/>
			</g>
		</g>
		<g>
			<g>
				<path fill="#3D3A4B" d="M170.5,408.33c-0.13,0.18-1.13-0.391-2.48-0.359c-1.35,0-2.34,0.6-2.47,0.42
					c-0.16-0.131,0.82-1.17,2.46-1.19C169.65,407.18,170.66,408.2,170.5,408.33z"/>
			</g>
		</g>
		<g>
			<g>
				<path fill="#3D3A4B" d="M170.22,404.18c-0.17,0.12-0.95-0.91-2.34-1.18c-1.39-0.29-2.5,0.359-2.61,0.18
					c-0.06-0.08,0.14-0.369,0.63-0.64c0.48-0.271,1.27-0.47,2.13-0.3c0.86,0.17,1.51,0.67,1.85,1.1
					C170.24,403.79,170.31,404.13,170.22,404.18z"/>
			</g>
		</g>
		<g>
			<g>
				<path fill="#3D3A4B" d="M170.34,398.859c-0.19,0.101-0.78-0.909-2-1.33c-1.21-0.439-2.3-0.029-2.39-0.219
					c-0.05-0.09,0.17-0.33,0.66-0.511c0.47-0.18,1.23-0.26,1.99,0.011c0.76,0.27,1.3,0.799,1.55,1.239
					C170.41,398.49,170.43,398.82,170.34,398.859z"/>
			</g>
		</g>
		<g>
			<g>
				<path fill="#3D3A4B" d="M175,394.73c-0.21,0.069-0.7-0.92-1.78-1.621c-1.06-0.729-2.16-0.81-2.17-1.02
					c-0.06-0.199,1.29-0.5,2.6,0.391C174.97,393.35,175.21,394.71,175,394.73z"/>
			</g>
		</g>
		<g>
			<g>
				<path fill="#3D3A4B" d="M177.28,391.16c-0.09,0.061-0.66-0.641-1.52-1.82c-0.48-0.689-0.97-1.38-1.47-2.09
					c-0.25-0.41-0.6-0.76-0.81-1.41c-0.09-0.33-0.08-0.71,0.11-1.061c0.18-0.369,0.67-0.6,1.05-0.549c0.76,0.109,1.18,0.5,1.63,0.84
					c0.43,0.369,0.78,0.779,1.06,1.209c0.56,0.861,0.82,1.761,0.91,2.511c0.17,1.54-0.34,2.42-0.4,2.38
					c-0.13-0.029,0.15-0.92-0.14-2.29c-0.15-0.68-0.44-1.46-0.96-2.2c-0.26-0.369-0.58-0.72-0.96-1.029
					c-0.37-0.301-0.84-0.621-1.2-0.66c-0.17-0.01-0.26,0.039-0.33,0.16c-0.07,0.129-0.09,0.32-0.05,0.49
					c0.09,0.369,0.43,0.799,0.67,1.209c0.45,0.74,0.9,1.471,1.33,2.18C176.95,390.29,177.36,391.1,177.28,391.16z"/>
			</g>
		</g>
		<g>
			<g>
				<path fill="#3D3A4B" d="M177.9,391.68c-0.08-0.01-0.02-0.92,0.93-1.97c0.92-0.989,2.93-2.05,5.16-0.931
					c0.16,0.141,0.28,0.381,0.27,0.621c-0.01,0.24-0.11,0.42-0.21,0.55c-0.21,0.27-0.43,0.399-0.63,0.55
					c-0.4,0.279-0.82,0.52-1.23,0.7c-0.82,0.38-1.62,0.56-2.29,0.64c-1.35,0.141-2.17-0.119-2.15-0.199
					c0.01-0.121,0.83-0.061,2.06-0.33c0.62-0.141,1.34-0.36,2.07-0.74c0.37-0.19,0.74-0.41,1.1-0.68
					c0.18-0.141,0.37-0.271,0.45-0.391c0.08-0.15,0.06-0.109,0.03-0.16c-0.06-0.061-0.29-0.14-0.5-0.189
					c-0.21-0.051-0.43-0.09-0.65-0.101c-0.43-0.03-0.85,0-1.24,0.091c-0.78,0.17-1.42,0.549-1.88,0.949
					C178.27,390.92,178.01,391.721,177.9,391.68z"/>
			</g>
		</g>
		<g>
			<circle fill="#EBEBEB" cx="158.84" cy="391.34" r="2.07"/>
		</g>
	</g>
	
		<image overflow="visible" enable-background="new    " width="79" height="75" xlink:href="7EC5A0D.png"  transform="matrix(0.2218 0 0 0.2208 166.1831 371.6084)">
	</image>
</g>
<g>
	<g>
		<g>
			<path fill="#504E5E" d="M226.98,390.09l-1.78,21.17c0,0,20.92,7.141,20.97,11.08l-41.17-0.2l1.42-33.1L226.98,390.09z"/>
		</g>
		<g>
			<g>
				<path fill="#EBEBEB" d="M212.55,408.87c-0.81,0.18-1.4,1.05-1.25,1.86c0.15,0.81,1.02,1.42,1.84,1.26
					c0.81-0.17,1.56-1.19,1.32-1.98c-0.239-0.79-1.31-1.449-2.05-1.1"/>
			</g>
		</g>
		<g>
			<path fill="#EBEBEB" d="M205,422.15l0.14-3.301l38.98,0.94c0,0,2.069,1.65,2.05,2.56L205,422.15z"/>
		</g>
		<g>
			<g>
				<path fill="#3D3A4B" d="M225.87,411.09c-0.021,0.2-1.03,0.24-2.05,0.84c-1.041,0.57-1.59,1.42-1.771,1.33
					c-0.18-0.05,0.171-1.24,1.421-1.939C224.721,410.6,225.93,410.9,225.87,411.09z"/>
			</g>
		</g>
		<g>
			<g>
				<path fill="#3D3A4B" d="M230.109,413.08c0.041,0.199-0.85,0.5-1.569,1.311c-0.75,0.799-0.96,1.709-1.16,1.689
					c-0.19,0.02-0.271-1.16,0.649-2.16C228.92,412.91,230.109,412.891,230.109,413.08z"/>
			</g>
		</g>
		<g>
			<g>
				<path fill="#3D3A4B" d="M232.311,418.359c-0.19,0.031-0.42-0.979,0.149-2.06c0.56-1.079,1.53-1.47,1.61-1.3
					c0.109,0.17-0.53,0.73-0.99,1.62C232.609,417.51,232.51,418.35,232.311,418.359z"/>
			</g>
		</g>
		<g>
			<g>
				<path fill="#3D3A4B" d="M225.74,406.221c-0.09,0.18-1-0.141-2.141-0.121c-1.14,0-2.039,0.34-2.14,0.16
					c-0.11-0.15,0.79-0.85,2.13-0.859C224.939,405.38,225.85,406.061,225.74,406.221z"/>
			</g>
		</g>
	</g>
	<g>
		<g>
			<path fill="#3D3A4B" d="M226.02,401.939c0,0.08-0.799,0.17-2.06-0.109c-0.63-0.141-1.36-0.38-2.13-0.77
				c-0.38-0.19-0.77-0.42-1.15-0.681c-0.18-0.13-0.4-0.26-0.6-0.51c-0.21-0.22-0.311-0.761-0.04-1.07
				c0.229-0.31,0.61-0.42,0.899-0.42c0.301,0,0.551,0.08,0.771,0.14c0.45,0.131,0.88,0.311,1.261,0.5
				c0.77,0.4,1.389,0.881,1.84,1.34c0.91,0.931,1.199,1.701,1.129,1.73c-0.09,0.061-0.529-0.59-1.469-1.369
				c-0.471-0.391-1.07-0.791-1.791-1.121c-0.359-0.16-0.75-0.31-1.17-0.42c-0.43-0.14-0.8-0.16-0.92,0.03
				c-0.04,0.07-0.05,0.101,0.03,0.229c0.09,0.121,0.26,0.25,0.44,0.381c0.35,0.25,0.709,0.479,1.06,0.67
				c0.7,0.39,1.38,0.67,1.96,0.859C225.26,401.74,226.029,401.83,226.02,401.939z"/>
		</g>
	</g>
	<g>
		<g>
			<path fill="#3D3A4B" d="M225.75,402.21c-0.07,0.03-0.439-0.71-0.45-2.021c0-0.649,0.101-1.43,0.39-2.239
				c0.15-0.41,0.34-0.82,0.58-1.229c0.26-0.391,0.58-0.931,1.371-0.98c0.409,0,0.729,0.34,0.83,0.619
				c0.119,0.291,0.139,0.531,0.18,0.771c0.05,0.479,0.02,0.96-0.07,1.39c-0.17,0.871-0.57,1.58-0.98,2.09
				c-0.859,1.031-1.709,1.23-1.72,1.16c-0.06-0.1,0.66-0.459,1.32-1.459c0.329-0.49,0.63-1.141,0.75-1.91
				c0.06-0.381,0.069-0.78,0.021-1.19c-0.041-0.44-0.191-0.8-0.361-0.76c-0.209-0.011-0.569,0.3-0.75,0.64
				c-0.229,0.36-0.42,0.73-0.56,1.09c-0.29,0.73-0.44,1.44-0.5,2.041C225.68,401.43,225.859,402.189,225.75,402.21z"/>
		</g>
	</g>
</g>
<g>
	<g>
		<g>
			<path fill="#B78876" d="M310.48,105.28c0.399-1.19,0.35-2.48-0.141-3.64c-1.71-4.04-5.71-13.01-7.149-12.75
				c-1.28,0.23-2.23,2.67-0.771,5.36l-4.71-4.01c-0.96-0.82-2.44,0-2.229,1.24c0.08,0.5,0.26,1.09,0.58,1.76
				c1.459,3.1,5.52,6.04,5.52,6.04l-8.2,0.05c0,0-1.53,2.14,1.28,3.58c0.63,0.32,1.33,0.5,2.04,0.57l4.24,0.43
				c0,0-7.661,8.47-7.921,9.26c-0.58,1.78-0.68,3.9-0.68,3.9l-14.699,16.36l3.93,24.86l26.56-45.96L310.48,105.28z"/>
		</g>
		<g>
			<g>
				<path fill="#AA6550" d="M308.34,101.54c-0.07,0.04-0.34-0.34-0.92-0.78c-0.58-0.44-1.5-0.89-2.59-1.09
					c-1.1-0.19-2.14-0.16-2.89-0.16c-0.75,0.01-1.23,0-1.23-0.07c-0.01-0.07,0.45-0.19,1.21-0.29c0.75-0.1,1.83-0.2,3.01,0.01
					c1.181,0.21,2.181,0.76,2.74,1.32C308.23,101.03,308.39,101.51,308.34,101.54z"/>
			</g>
		</g>
		<g>
			<g>
				
					<ellipse transform="matrix(0.618 -0.7862 0.7862 0.618 40.775 276.8729)" fill="#AA6550" cx="305.311" cy="96.476" rx="0.26" ry="4.04"/>
			</g>
		</g>
	</g>
</g>
<g>
	<g>
		<g>
			<path fill="#3D3A4B" d="M235.971,221.561c0.219,0.029,0.979,48.959,1.319,71.069c0.101,6.95-1.69,13.8-5.181,19.81l-47.85,84.07
				l-27.48-22.88l44.45-75.11l-16.36-79.18l32.399-27.86L235.971,221.561z"/>
		</g>
		<g>
			<path fill="#3D3A4B" d="M259.221,211.55c-0.141,2.82-25.99,184.54-25.99,184.54l-32.01-2.29l11.74-183.39L259.221,211.55z"/>
		</g>
		<g>
			<g>
				<path fill="#504E5E" d="M232.42,224.311c0,0,0.03,0.159,0.061,0.479c0.029,0.34,0.08,0.8,0.129,1.399
					c0.111,1.261,0.261,3.07,0.461,5.391c0.369,4.71,0.9,11.49,1.56,19.85c0.62,8.391,1.36,18.37,2.17,29.45
					c0.181,2.771,0.37,5.62,0.56,8.521c0.07,1.449,0.201,2.93,0.16,4.42c-0.039,1.5-0.18,3-0.439,4.5c-0.5,3.01-1.45,5.99-2.78,8.84
					c-0.659,1.43-1.46,2.8-2.22,4.18c-0.77,1.381-1.551,2.77-2.33,4.17c-12.529,22.381-23.86,42.641-32.08,57.33
					c-4.12,7.311-7.45,13.23-9.77,17.34c-1.15,2.03-2.06,3.61-2.68,4.7c-0.3,0.521-0.54,0.92-0.71,1.22
					c-0.16,0.271-0.26,0.41-0.26,0.41s0.06-0.15,0.21-0.43c0.16-0.3,0.38-0.71,0.66-1.24c0.6-1.109,1.48-2.699,2.6-4.75
					c2.29-4.13,5.57-10.08,9.63-17.42c8.19-14.71,19.48-34.99,31.95-57.4c0.78-1.399,1.56-2.789,2.33-4.17
					c0.771-1.39,1.56-2.74,2.21-4.149c1.32-2.81,2.25-5.74,2.75-8.7c0.25-1.48,0.4-2.96,0.43-4.43
					c0.051-1.471-0.08-2.93-0.149-4.381c-0.19-2.899-0.37-5.739-0.55-8.51c-0.78-11.08-1.48-21.06-2.061-29.449
					c-0.59-8.371-1.07-15.15-1.4-19.86c-0.149-2.33-0.27-4.14-0.359-5.399c-0.029-0.601-0.061-1.07-0.08-1.41
					C232.42,224.47,232.42,224.311,232.42,224.311z"/>
			</g>
		</g>
		<g>
			<g>
				<path fill="#504E5E" d="M210.55,310.24c-0.01,0.029-0.24,0-0.65-0.11c-0.41-0.09-0.99-0.3-1.67-0.63
					c-1.37-0.641-3.12-1.9-4.52-3.76c-1.39-1.87-2.1-3.9-2.33-5.4c-0.12-0.75-0.16-1.359-0.13-1.779c0.02-0.42,0.05-0.65,0.08-0.65
					c0.09,0,0.09,0.93,0.41,2.359c0.31,1.431,1.05,3.36,2.38,5.16c1.35,1.791,2.99,3.041,4.27,3.74
					C209.68,309.891,210.57,310.15,210.55,310.24z"/>
			</g>
		</g>
		<g>
			<g>
				<path fill="#504E5E" d="M214.17,304.78c0,0.05-0.89,0.17-2.33-0.011c-1.43-0.17-3.39-0.72-5.31-1.84
					c-1.91-1.13-3.35-2.57-4.2-3.729c-0.86-1.171-1.2-2-1.15-2.021c0.08-0.039,0.53,0.721,1.44,1.79c0.9,1.08,2.33,2.421,4.18,3.511
					c1.85,1.08,3.72,1.67,5.1,1.93S214.17,304.689,214.17,304.78z"/>
			</g>
		</g>
		<g>
			<g>
				<path fill="#504E5E" d="M191.61,226.93c0.04-0.029,0.22,0.29,0.77,0.53c0.54,0.25,1.47,0.33,2.43-0.17
					c0.96-0.479,1.99-1.351,3.15-2.25c1.15-0.92,2.38-1.97,3.61-3.14c2.48-2.32,4.48-4.66,5.87-6.4c1.38-1.75,2.17-2.88,2.24-2.84
					c0.03,0.02-0.13,0.33-0.46,0.859c-0.33,0.53-0.83,1.291-1.48,2.2c-1.32,1.811-3.3,4.21-5.8,6.561
					c-1.25,1.17-2.5,2.229-3.67,3.13c-1.19,0.89-2.23,1.72-3.3,2.199c-1.07,0.5-2.12,0.351-2.68,0.021
					C191.72,227.311,191.59,226.93,191.61,226.93z"/>
			</g>
		</g>
		<g>
			<g>
				<path fill="#504E5E" d="M209.43,225.45c0.06,0.03-0.37,1.13-1.26,2.819c-0.9,1.67-2.32,3.99-4.61,5.891
					c-2.3,1.9-5.02,2.689-6.96,2.66c-0.97,0-1.75-0.15-2.26-0.32c-0.51-0.17-0.78-0.311-0.77-0.33c0.03-0.1,1.14,0.38,3.02,0.29
					c1.85-0.069,4.43-0.87,6.64-2.69c2.2-1.83,3.64-4.06,4.62-5.67C208.81,226.46,209.36,225.42,209.43,225.45z"/>
			</g>
		</g>
	</g>
	<g>
		<path fill="#D9594C" d="M259.221,211.55c0,0-24.711,11.53-33.561,7.56c-8.86-3.969-14.66-13.129-21.07-11
			c-6.41,2.14-16.19,3.97-19.55,13.13c0,0-2.13-1.92-2.13-5.75c0-3.561,3-8.39,3-8.39l-4.02-41.26l0.17-69.37
			c0,0,6.88-10.25,25.51-9.64l25.73,3.7c0,0,13.13,3.97,16.8,10.69c3.67,6.72,2.131,54.48,2.131,54.48s8.149,46.36,8.149,49.98
			C260.38,209.31,259.221,211.55,259.221,211.55"/>
	</g>
	<g>
		<path fill="#D9594C" d="M273.84,132.69l-10.609,9.46L250.1,101.22l-11.029,24.65l4.439,39.97c0.711,6.41,5.36,11.69,11.631,13.21
			l0,0c4.879,1.18,10.029-0.1,13.779-3.43l11.21-9.58c1.601-1.37,2.38-3.47,2.05-5.55L278,134.18
			C277.689,132.21,275.32,131.37,273.84,132.69z"/>
	</g>
	<g>
		<path fill="#B78876" d="M193.51,121.61c0,0.92-4.93,45.59-4.93,45.59l20.89,45.2c-2.06,4.26-5.92,8.13-10.23,11.91
			c0,0-5.34-4.891-5.65-15.271c0,0-23.74-27.89-26.19-35.22c-2.44-7.33,4.28-57.39,4.28-57.39L193.51,121.61z"/>
	</g>
	<g>
		<g>
			<path fill="#3D3A4B" d="M246.58,129.4c0.029,0.02-0.13,0.34-0.43,0.91c-0.311,0.57-0.771,1.38-1.351,2.38
				c-0.6,0.99-1.22,2.2-2.14,3.46c-0.471,0.62-1.04,1.24-1.801,1.69c-0.75,0.45-1.639,0.72-2.56,0.75c-1.85,0.07-3.53-0.61-4.8-1.52
				c-1.26-0.93-2.15-2.02-2.83-2.97c-0.67-0.95-1.13-1.76-1.449-2.33c-0.311-0.57-0.461-0.89-0.431-0.91
				c0.08-0.05,0.81,1.19,2.181,3.02c0.699,0.9,1.59,1.94,2.809,2.8c1.201,0.84,2.801,1.46,4.49,1.39c0.84-0.03,1.641-0.27,2.32-0.67
				s1.221-0.96,1.68-1.54c0.9-1.19,1.57-2.4,2.211-3.36c0.619-0.97,1.129-1.75,1.49-2.29C246.34,129.66,246.55,129.38,246.58,129.4z
				"/>
		</g>
	</g>
	<g>
		<g>
			<path fill="#3D3A4B" d="M261.971,166.46c-0.031,0.01-0.181-0.31-0.4-0.91c-0.24-0.59-0.51-1.48-0.791-2.59
				c-0.569-2.21-1.02-5.38-0.85-8.88c0.18-3.5,0.95-6.61,1.74-8.75c0.391-1.08,0.75-1.93,1.05-2.49c0.29-0.57,0.46-0.88,0.49-0.86
				c0.08,0.04-0.51,1.32-1.2,3.47c-0.689,2.15-1.39,5.22-1.57,8.66c-0.17,3.44,0.221,6.56,0.69,8.77S262.061,166.43,261.971,166.46z
				"/>
		</g>
	</g>
	<g>
		<g>
			<path fill="#3D3A4B" d="M267.561,158.26c-0.051,0.03-0.601-0.76-1.301-2.15c-0.699-1.38-1.52-3.37-2.14-5.66
				c-0.61-2.29-0.89-4.43-0.97-5.98c-0.08-1.55-0.01-2.51,0.05-2.51c0.079,0,0.14,0.95,0.31,2.47s0.51,3.62,1.11,5.87
				c0.6,2.26,1.36,4.24,1.97,5.64C267.21,157.37,267.63,158.22,267.561,158.26z"/>
		</g>
	</g>
	<g>
		<g>
			<path fill="#3D3A4B" d="M245.891,137.77c0.02-0.01,0.1,0.14,0.229,0.44s0.31,0.74,0.5,1.33c0.36,1.18,0.79,2.96,0.659,5.2
				c-0.109,2.21-0.92,4.93-2.93,7.15c-1,1.1-2.279,2.07-3.8,2.67s-3.271,0.76-4.97,0.42c-1.7-0.34-3.26-1.17-4.391-2.38
				c-1.129-1.21-1.75-2.71-2.109-4.14c-0.359-1.44-0.49-2.83-0.6-4.13c-0.101-1.29-0.201-2.49-0.28-3.59
				c-0.15-2.14-0.28-3.9-0.37-5.21c-0.03-0.57-0.051-1.03-0.08-1.42c-0.01-0.32-0.01-0.5,0.01-0.5s0.051,0.17,0.09,0.49
				c0.051,0.38,0.101,0.85,0.17,1.41c0.131,1.31,0.32,3.06,0.541,5.19c0.109,1.1,0.219,2.3,0.35,3.59
				c0.13,1.28,0.279,2.66,0.64,4.04s0.96,2.79,2.021,3.91c1.05,1.12,2.52,1.89,4.119,2.21c1.601,0.32,3.25,0.18,4.681-0.38
				c1.44-0.55,2.67-1.47,3.63-2.51c1.95-2.11,2.76-4.71,2.92-6.86c0.18-2.17-0.18-3.94-0.48-5.12
				C246.109,138.42,245.85,137.79,245.891,137.77z"/>
		</g>
	</g>
	
		<image overflow="visible" enable-background="new    " width="54" height="233" xlink:href="7EC5A0E.png"  transform="matrix(0.2356 0 0 0.2359 188.4556 126.7969)">
	</image>
	<g>
		<path fill="#D9594C" d="M186.36,92.94c0,0-21.53,10.89-24.53,68.97c-0.21,4,3.38,7.14,7.31,6.4c8.83-1.68,22.21-4.27,22.13-4.63
			c-0.12-0.54,5.02-51.12,5.02-51.12L186.36,92.94z"/>
	</g>
	<g>
		<g>
			<path fill="#3D3A4B" d="M195.9,111.65c0.02,0,0.03,0.27,0.03,0.78c0,0.51,0,1.26-0.03,2.23c-0.04,1.93-0.15,4.73-0.39,8.18
				c-0.23,3.45-0.58,7.55-1.06,12.09c-0.25,2.27-0.52,4.65-0.8,7.12c-0.15,1.23-0.3,2.49-0.46,3.76c-0.11,1.3-0.54,2.57-0.74,3.84
				c-0.09,0.63-0.14,1.27-0.01,1.85c0.13,0.57,0.46,1.13,0.87,1.56c0.82,0.9,2.04,1.38,2.99,2.29c0.98,0.91,1.42,2.18,1.63,3.38
				c0.1,0.61,0.14,1.23,0.05,1.84c-0.08,0.61-0.3,1.23-0.76,1.7c-0.46,0.48-1.16,0.59-1.67,0.68c-0.55,0.1-1.08,0.21-1.61,0.31
				c-1.06,0.21-2.09,0.42-3.08,0.62c-1.98,0.41-3.84,0.79-5.53,1.14c-3.34,0.69-6.06,1.26-8.01,1.66c-0.47,0.09-0.89,0.18-1.26,0.25
				c-0.18,0.04-0.35,0.07-0.5,0.1l-0.06,0.01h-0.01l0,0c0.01,0.03-0.06-0.23-0.03-0.12h0.01l0.03-0.01l0.11-0.02
				c0.07-0.01,0.13-0.03,0.2-0.04c0.5-0.09,0.76-0.13,0.77-0.12c0.01,0.01-0.25,0.09-0.75,0.22c-0.06,0.02-0.13,0.03-0.2,0.05
				l-0.11,0.03l-0.03,0.01h-0.01c0.02,0.11-0.04-0.15-0.03-0.12l0,0h0.01l0.06-0.01c0.16-0.04,0.32-0.08,0.5-0.12
				c0.37-0.09,0.79-0.19,1.25-0.3c1.94-0.44,4.65-1.06,7.98-1.82c1.69-0.37,3.54-0.77,5.52-1.2c1-0.21,2.02-0.42,3.08-0.64
				c0.53-0.11,1.07-0.21,1.62-0.32c0.57-0.1,1.06-0.19,1.42-0.56c0.7-0.75,0.74-2,0.55-3.11c-0.21-1.13-0.63-2.29-1.5-3.09
				c-0.85-0.82-2.08-1.3-3.02-2.3c-0.46-0.51-0.83-1.09-0.99-1.79c-0.16-0.69-0.1-1.39,0-2.05c0.21-1.34,0.63-2.56,0.74-3.82
				c0.16-1.27,0.31-2.53,0.46-3.76c0.29-2.47,0.56-4.84,0.83-7.11c0.5-4.54,0.89-8.63,1.17-12.07c0.28-3.44,0.45-6.23,0.55-8.16
				c0.05-0.92,0.09-1.66,0.12-2.22C195.85,111.92,195.88,111.65,195.9,111.65z"/>
		</g>
	</g>
	<g>
		<g>
			<path fill="#3D3A4B" d="M187.04,147.26c0.03,0.01-0.01,0.25-0.13,0.69c-0.05,0.22-0.13,0.49-0.26,0.78
				c-0.13,0.3-0.25,0.65-0.46,0.99c-0.37,0.73-0.92,1.53-1.64,2.33c-0.73,0.79-1.64,1.57-2.69,2.23c-1.07,0.64-2.17,1.09-3.2,1.39
				c-1.04,0.27-2.01,0.41-2.82,0.41c-0.41,0.03-0.77-0.02-1.09-0.04s-0.59-0.07-0.81-0.12c-0.44-0.1-0.68-0.16-0.67-0.2
				c0.02-0.1,0.99,0.1,2.56,0c0.79-0.04,1.71-0.21,2.7-0.5c0.99-0.31,2.04-0.76,3.07-1.38c1.01-0.63,1.89-1.37,2.61-2.11
				c0.7-0.76,1.27-1.5,1.67-2.19C186.68,148.19,186.94,147.23,187.04,147.26z"/>
		</g>
	</g>
	
		<image overflow="visible" enable-background="new    " width="183" height="54" xlink:href="25290702.png"  transform="matrix(0.2374 0 0 0.2133 209.6841 193.8701)">
	</image>
	<g>
		<g>
			<path fill="#3D3A4B" d="M256.87,199.99c0.01,0.02-0.14,0.13-0.431,0.34c-0.299,0.2-0.719,0.53-1.31,0.86
				c-1.159,0.72-2.93,1.63-5.239,2.46c-4.591,1.7-11.471,2.66-18.891,1.67c-7.42-0.98-13.83-3.26-18.39-4.94
				c-2.28-0.86-4.11-1.59-5.37-2.11c-0.58-0.25-1.06-0.45-1.45-0.61c-0.33-0.15-0.5-0.23-0.49-0.25c0.01-0.02,0.19,0.03,0.53,0.15
				c0.39,0.14,0.88,0.31,1.48,0.52c1.35,0.49,3.19,1.15,5.42,1.95c4.581,1.59,10.98,3.8,18.331,4.77
				c7.35,0.97,14.129,0.08,18.699-1.51c2.29-0.77,4.07-1.62,5.26-2.29C256.21,200.36,256.84,199.95,256.87,199.99z"/>
		</g>
	</g>
	
		<image overflow="visible" enable-background="new    " width="33" height="208" xlink:href="25290703.png"  transform="matrix(0.24 0 0 0.2342 251.293 130.6719)">
	</image>
	
		<image overflow="visible" enable-background="new    " width="67" height="108" xlink:href="25290704.png"  transform="matrix(0.2293 0 0 0.2378 227.4434 135.3096)">
	</image>
	<g>
		<g>
			<path fill="#FAFAFA" d="M194.49,127.82c0,0.04-0.38,0.12-1.08,0.23c-0.7,0.11-1.71,0.26-2.97,0.41
				c-2.51,0.28-6.05,0.61-9.92,0.02s-7.15-2.23-9.09-3.91c-0.98-0.83-1.66-1.62-2.07-2.2c-0.42-0.58-0.6-0.93-0.57-0.95
				c0.09-0.07,0.9,1.31,2.88,2.86c1.95,1.56,5.15,3.1,8.94,3.68s7.29,0.31,9.81,0.13c1.17-0.1,2.17-0.18,2.99-0.25
				C194.1,127.8,194.49,127.78,194.49,127.82z"/>
		</g>
	</g>
	<g>
		<g>
			<path fill="#FAFAFA" d="M193.08,135.49c0.01,0.03-0.37,0.17-1.06,0.38c-0.35,0.11-0.77,0.23-1.28,0.33
				c-0.5,0.1-1.08,0.25-1.72,0.32c-1.28,0.21-2.83,0.32-4.55,0.3c-1.72-0.05-3.6-0.23-5.55-0.64c-1.94-0.43-3.74-1.04-5.32-1.71
				c-1.57-0.69-2.94-1.43-4.02-2.15c-0.56-0.33-1.02-0.7-1.43-1c-0.42-0.3-0.76-0.58-1.03-0.83c-0.55-0.48-0.83-0.75-0.81-0.78
				c0.06-0.08,1.27,0.97,3.47,2.3c1.09,0.67,2.45,1.36,4.01,2.021c1.57,0.63,3.34,1.22,5.24,1.64c1.91,0.4,3.76,0.6,5.45,0.67
				c1.69,0.04,3.22-0.03,4.49-0.19C191.52,135.85,193.05,135.4,193.08,135.49z"/>
		</g>
	</g>
	<g>
		<g>
			
				<ellipse transform="matrix(0.0263 -0.9997 0.9997 0.0263 71.5493 341.0956)" fill="#FAFAFA" cx="210.87" cy="133.819" rx="0.26" ry="16.2"/>
		</g>
	</g>
	<g>
		<g>
			<path fill="#FAFAFA" d="M228.1,142.32c0.01,0.04-0.459,0.18-1.33,0.42c-0.859,0.24-2.129,0.54-3.699,0.84
				c-3.141,0.62-7.551,1.19-12.45,1.25c-4.9,0.05-9.32-0.43-12.48-0.99c-1.58-0.27-2.85-0.54-3.72-0.76
				c-0.87-0.22-1.35-0.35-1.34-0.39c0.01-0.03,0.5,0.04,1.38,0.19c0.88,0.16,2.15,0.37,3.73,0.6c3.16,0.46,7.55,0.88,12.42,0.83
				c4.861-0.06,9.25-0.57,12.39-1.09c1.57-0.26,2.84-0.5,3.721-0.68C227.6,142.36,228.09,142.28,228.1,142.32z"/>
		</g>
	</g>
	<g>
		<g>
			<path fill="#FAFAFA" d="M246.88,140.83c0.03,0.01-0.069,0.29-0.33,0.74c-0.26,0.46-0.739,1.06-1.47,1.66
				c-1.439,1.21-4.061,2.2-6.95,1.9c-2.88-0.31-5.229-1.52-6.819-2.43c-1.601-0.93-2.521-1.62-2.48-1.67
				c0.04-0.07,1.029,0.51,2.66,1.35c1.619,0.82,3.949,1.94,6.699,2.24c2.75,0.28,5.24-0.6,6.67-1.67
				C246.32,141.87,246.79,140.77,246.88,140.83z"/>
		</g>
	</g>
	<g>
		<g>
			
				<ellipse transform="matrix(-0.2066 -0.9784 0.9784 -0.2066 167.8077 406.5765)" fill="#FAFAFA" cx="248.753" cy="135.25" rx="0.26" ry="2.69"/>
		</g>
	</g>
	<g>
		<g>
			<path fill="#FAFAFA" d="M261.061,135.02c0.06,0.12-1.951,1.31-4.65,2.3c-2.7,0.99-5.01,1.37-5.04,1.23
				c-0.04-0.15,2.2-0.75,4.86-1.72C258.891,135.86,260.99,134.88,261.061,135.02z"/>
		</g>
	</g>
	<g>
		<g>
			<path fill="#FAFAFA" d="M257.859,125.43c0.021,0.15-1.39,0.43-3.069,0.9c-1.681,0.48-3.03,0.97-3.09,0.83
				c-0.05-0.12,1.22-0.84,2.95-1.33C256.38,125.35,257.84,125.3,257.859,125.43z"/>
		</g>
	</g>
	<g>
		<g>
			<path fill="#3D3A4B" d="M252.42,121.77c0.02,0,0.01,0.21-0.01,0.59c-0.04,0.44-0.09,1-0.141,1.68
				c-0.08,0.73-0.149,1.62-0.22,2.66c-0.079,1.04-0.18,2.22-0.239,3.53c-0.17,2.61-0.24,5.73-0.271,9.19
				c0.01,3.46,0.11,7.26,0.36,11.25c0.27,3.99,0.66,7.77,1.09,11.2c0.47,3.43,0.939,6.51,1.449,9.08c0.23,1.29,0.48,2.45,0.69,3.47
				c0.2,1.02,0.39,1.9,0.56,2.61c0.15,0.67,0.261,1.22,0.36,1.65c0.08,0.38,0.11,0.58,0.091,0.58c-0.021,0-0.08-0.19-0.19-0.56
				c-0.12-0.43-0.271-0.97-0.45-1.63c-0.2-0.71-0.42-1.58-0.65-2.59c-0.24-1.01-0.51-2.17-0.76-3.46
				c-0.55-2.57-1.061-5.65-1.561-9.09c-0.459-3.44-0.869-7.24-1.129-11.23c-0.25-4-0.33-7.81-0.32-11.28
				c0.05-3.47,0.16-6.59,0.38-9.21c0.08-1.31,0.21-2.49,0.31-3.53c0.101-1.04,0.2-1.93,0.311-2.66c0.1-0.68,0.18-1.23,0.24-1.67
				C252.37,121.97,252.41,121.77,252.42,121.77z"/>
		</g>
	</g>
	
		<image overflow="visible" enable-background="new    " width="58" height="25" xlink:href="25290705.png"  transform="matrix(0.2193 0 0 0.1824 230.6035 133.5166)">
	</image>
</g>
<g>
	<path fill="#3D3A4B" d="M211.82,48.1c-0.53-2.29-1.07-4.6-1.14-6.95c-0.07-2.35,0.35-4.78,1.6-6.77c1.25-1.99,3.43-3.48,5.781-3.53
		c1.449-0.03,2.91,0.47,4.34,0.21c1.649-0.3,2.939-1.55,4.35-2.46c2.2-1.44,4.87-2.13,7.49-1.95c1.38,0.1,2.77,0.45,3.88,1.27
		c1.101,0.82,1.87,2.18,1.729,3.55c1.68-0.25,3.381-0.51,5.061-0.32s3.38,0.88,4.439,2.21c1.061,1.33,1.301,3.36,0.291,4.72
		c1.5-0.55,3.31,0.4,3.909,1.88c0.601,1.48,0.091,3.28-1.04,4.41c-1.14,1.13-3.46,1.9-5.06,1.84c-1.601-0.06-3.44-0.23-4.851-0.99"
		/>
</g>
<g>
	<g>
		<g>
			<g>
				<g>
					<g>
						<g>
							<g>
								<g>
									<g>
										<path fill="#B78876" d="M217.42,101.08L217.42,101.08c6.95,1.6,13.721-3.27,14.42-10.36c0.381-3.8,0.71-7.05,0.78-7.51
											c0,0,9.569,0.18,11.31-9.11c1.75-9.29,3.881-30.96,3.881-30.96l0,0c-9.971-6.52-22.69-7.14-33.24-1.61L213,42.35l-4.71,46
											C207.69,94.29,211.6,99.74,217.42,101.08z"/>
									</g>
								</g>
							</g>
						</g>
					</g>
					<g>
						<g>
							<g>
								<g>
									<g>
										<path fill="#AA6550" d="M232.66,83.08c0,0-5.971-0.55-11.54-5.58c0,0,1.7,7.21,11.14,7.99L232.66,83.08z"/>
									</g>
								</g>
							</g>
						</g>
					</g>
				</g>
			</g>
		</g>
		<g>
			<g>
				<g>
					<g>
						<g>
							<g>
								<path fill="#B78876" d="M212.47,52.2c-0.15-0.1-6.07-3.01-6.98,3.39c-0.91,6.4,5.7,6,5.74,5.81
									C211.27,61.22,212.47,52.2,212.47,52.2z"/>
							</g>
						</g>
					</g>
				</g>
			</g>
			<g>
				<g>
					<g>
						<g>
							<g>
								<g>
									<path fill="#AA6550" d="M209.62,58.7c-0.03-0.02-0.12,0.06-0.32,0.12c-0.2,0.06-0.52,0.07-0.84-0.1
										c-0.64-0.34-1.06-1.5-0.92-2.66c0.07-0.58,0.27-1.12,0.54-1.55c0.26-0.44,0.61-0.72,0.96-0.74
										c0.35-0.03,0.56,0.21,0.61,0.4c0.06,0.19,0,0.31,0.03,0.33c0.02,0.02,0.15-0.09,0.14-0.36c-0.01-0.13-0.06-0.29-0.19-0.44
										c-0.14-0.15-0.35-0.24-0.59-0.25c-0.5-0.04-1.01,0.35-1.31,0.83c-0.33,0.47-0.57,1.07-0.64,1.729
										c-0.14,1.3,0.35,2.6,1.23,3c0.43,0.18,0.83,0.1,1.04-0.02C209.59,58.86,209.64,58.72,209.62,58.7z"/>
								</g>
							</g>
						</g>
					</g>
				</g>
			</g>
		</g>
		<g>
			<g>
				<g>
					<g>
						<g>
							<g>
								<g>
									<g>
										<g>
											<g>
												<g>
													<path fill="#3D3A4B" d="M243.141,57.41c-0.101,0.71-0.781,1.21-1.521,1.12c-0.74-0.09-1.261-0.73-1.16-1.44
														s0.78-1.21,1.521-1.12C242.721,56.06,243.24,56.7,243.141,57.41z"/>
												</g>
											</g>
										</g>
									</g>
								</g>
								<g>
									<g>
										<g>
											<g>
												<g>
													<g>
														<path fill="#3D3A4B" d="M243.76,55.93c-0.199,0.14-1.07-0.78-2.5-1.02c-1.43-0.27-2.609,0.29-2.73,0.08
															c-0.059-0.09,0.16-0.37,0.681-0.63c0.511-0.25,1.33-0.44,2.22-0.28c0.891,0.16,1.58,0.62,1.961,1.03
															C243.76,55.53,243.85,55.87,243.76,55.93z"/>
													</g>
												</g>
											</g>
										</g>
									</g>
								</g>
							</g>
							<g>
								<g>
									<g>
										<g>
											<g>
												<g>
													<path fill="#3D3A4B" d="M229.26,54.94c-0.1,0.71-0.779,1.21-1.52,1.12c-0.74-0.09-1.26-0.73-1.16-1.44
														s0.779-1.21,1.52-1.12C228.83,53.59,229.359,54.23,229.26,54.94z"/>
												</g>
											</g>
										</g>
									</g>
								</g>
								<g>
									<g>
										<g>
											<g>
												<g>
													<g>
														<path fill="#3D3A4B" d="M229.641,53.74c-0.201,0.14-1.07-0.78-2.5-1.021c-1.431-0.27-2.611,0.29-2.73,0.08
															c-0.061-0.09,0.16-0.37,0.68-0.63c0.51-0.25,1.33-0.44,2.221-0.28c0.89,0.16,1.58,0.62,1.959,1.03
															C229.641,53.33,229.74,53.67,229.641,53.74z"/>
													</g>
												</g>
											</g>
										</g>
									</g>
								</g>
							</g>
							<g>
								<g>
									<g>
										<g>
											<g>
												<g>
													<path fill="#3D3A4B" d="M232.98,65.26c0.01-0.08,0.92-0.08,2.399-0.01c0.37,0.03,0.729,0.01,0.83-0.22
														c0.13-0.25,0.05-0.67-0.05-1.13c-0.189-0.94-0.391-1.93-0.59-2.97c-0.811-4.22-1.32-7.67-1.15-7.7s0.96,3.37,1.77,7.59
														c0.19,1.04,0.371,2.03,0.551,2.98c0.07,0.44,0.22,0.95-0.061,1.47c-0.15,0.26-0.449,0.41-0.689,0.43
														c-0.25,0.03-0.45,0-0.641-0.02C233.87,65.49,232.971,65.34,232.98,65.26z"/>
												</g>
											</g>
										</g>
									</g>
								</g>
							</g>
							<g>
								<g>
									<g>
										<g>
											<g>
												<g>
													<path fill="#3D3A4B" d="M228.59,65.51c0.23,0.03-0.029,1.58,1.1,2.92c1.131,1.34,2.82,1.45,2.791,1.67
														c0,0.1-0.42,0.24-1.121,0.13c-0.689-0.1-1.649-0.49-2.35-1.31c-0.689-0.82-0.88-1.78-0.83-2.43
														C228.25,65.84,228.49,65.49,228.59,65.51z"/>
												</g>
											</g>
										</g>
									</g>
								</g>
							</g>
						</g>
					</g>
				</g>
				<g>
					<g>
						<g>
							<g>
								<g>
									<path fill="#3D3A4B" d="M243.67,53.32c-0.311,0.28-1.24-0.23-2.42-0.45c-1.17-0.27-2.23-0.17-2.4-0.55
										c-0.07-0.18,0.141-0.48,0.641-0.71c0.49-0.23,1.25-0.35,2.06-0.19c0.81,0.17,1.46,0.59,1.82,0.99
										C243.73,52.83,243.811,53.18,243.67,53.32z"/>
								</g>
							</g>
						</g>
					</g>
				</g>
			</g>
		</g>
	</g>
</g>
<g>
	<g>
		<path fill="#3D3A4B" d="M228.689,48.24c-0.189,0.15-0.549,0.01-1.01-0.17c-0.459-0.18-1.05-0.4-1.729-0.55
			c-0.681-0.14-1.3-0.17-1.8-0.19c-0.49-0.02-0.871-0.04-0.99-0.25c-0.11-0.19,0.1-0.58,0.67-0.9c0.561-0.32,1.49-0.51,2.46-0.31
			c0.979,0.2,1.75,0.75,2.13,1.27C228.83,47.67,228.87,48.1,228.689,48.24z"/>
	</g>
</g>
<g>
	<path fill="#3D3A4B" d="M247.779,46.08c0,0-6.6,1-13.459-3.07c-4.5-2.67-9.87-4.21-11.141-3.36c-1.27,0.85-1.869,5.65-6.609,6.72
		c0,0-0.35,9.21-3.99,8.62c-3.64-0.59-0.31-14.66-0.31-14.66l9.28-3.72l9.921-1.14l9.159,0.67l8.33,3.24L247.779,46.08z"/>
</g>
<g>
	<path fill="#D9594C" d="M44.25,306.9c-7.95-12.16-6.79-29.541,2.71-40.541c2.95-3.409,7.07-6.379,11.56-6
		c4.6,0.391,8.31,4.341,9.71,8.74c1.4,4.4,0.91,9.17,0.09,13.711c-1.15,6.359-3.08,12.869-7.49,17.6S49.92,310,44.25,306.9"/>
</g>
<g>
	<path fill="#D9594C" d="M48.65,365.439c-2.99-6.989-0.82-15.84,5.07-20.64c1.83-1.489,4.22-2.649,6.5-2.04
		c2.34,0.62,3.89,2.99,4.21,5.381c0.32,2.389-0.36,4.81-1.2,7.069c-1.17,3.17-2.75,6.351-5.46,8.39
		C55.07,365.641,51.29,367.55,48.65,365.439"/>
</g>
<g>
	<path fill="#D9594C" d="M29.47,361.26c2.19-10.779-3.5-22.68-13.26-27.76c-3.03-1.58-6.76-2.51-9.81-0.98
		c-3.13,1.57-4.63,5.381-4.38,8.871c0.25,3.489,1.92,6.709,3.78,9.67c2.59,4.149,5.77,8.189,10.2,10.279S26.35,365.029,29.47,361.26
		"/>
</g>
<g>
	<path fill="#D9594C" d="M30.85,332.109c3.81-12.289-2.65-27.18-13.41-34.229c-3.34-2.19-7.57-3.71-11.3-2.29
		c-3.82,1.46-6.01,5.721-6.14,9.801c-0.12,4.09,1.45,8.029,3.26,11.689c2.53,5.13,5.75,10.21,10.66,13.15
		C18.83,333.18,26.77,336.13,30.85,332.109"/>
</g>
<g>
	<g>
		<path fill="#3D3A4B" d="M38.49,392.16c-0.02,0-0.06-0.2-0.12-0.59c-0.07-0.45-0.15-1.021-0.26-1.711
			c-0.05-0.379-0.11-0.789-0.17-1.239c-0.09-0.45-0.18-0.94-0.28-1.46c-0.2-1.051-0.41-2.25-0.75-3.54
			c-0.16-0.649-0.32-1.34-0.5-2.05c-0.21-0.7-0.42-1.44-0.64-2.19c-0.41-1.53-1.02-3.1-1.58-4.78c-1.26-3.319-2.82-6.899-4.74-10.52
			c-1.96-3.6-4.07-6.88-6.14-9.77c-1.09-1.4-2.07-2.78-3.11-3.961c-0.51-0.6-1-1.189-1.47-1.75c-0.5-0.539-0.98-1.049-1.43-1.539
			c-0.89-1-1.78-1.84-2.54-2.58c-0.38-0.371-0.73-0.721-1.06-1.041c-0.34-0.299-0.65-0.58-0.94-0.83
			c-0.52-0.469-0.95-0.859-1.29-1.159c-0.29-0.271-0.44-0.42-0.43-0.431c0.01-0.01,0.18,0.11,0.49,0.351
			c0.35,0.28,0.8,0.64,1.35,1.09c0.3,0.24,0.62,0.511,0.97,0.8c0.34,0.311,0.71,0.65,1.1,1.01c0.79,0.73,1.69,1.551,2.61,2.541
			c0.47,0.49,0.96,1,1.47,1.529c0.48,0.561,0.98,1.141,1.5,1.74c1.07,1.18,2.06,2.55,3.17,3.96c2.1,2.89,4.25,6.181,6.22,9.81
			c1.93,3.641,3.49,7.25,4.73,10.601c0.56,1.7,1.15,3.29,1.55,4.83c0.21,0.76,0.42,1.5,0.62,2.21c0.16,0.72,0.32,1.41,0.47,2.07
			c0.32,1.31,0.5,2.52,0.68,3.58c0.09,0.529,0.17,1.02,0.24,1.469c0.05,0.451,0.09,0.871,0.13,1.25c0.06,0.711,0.12,1.281,0.16,1.73
			C38.51,391.95,38.51,392.16,38.49,392.16z"/>
	</g>
</g>
<g>
	<g>
		<path fill="#3D3A4B" d="M38.21,394.37c-0.01,0-0.01-0.08,0-0.25c0.01-0.19,0.03-0.431,0.05-0.71c0.06-0.67,0.15-1.58,0.25-2.73
			c0.06-0.6,0.12-1.25,0.19-1.97c0.05-0.72,0.07-1.51,0.12-2.351c0.06-1.689,0.22-3.609,0.16-5.729c0-1.06-0.01-2.18-0.02-3.34
			c-0.01-1.16-0.12-2.36-0.18-3.61c-0.08-2.5-0.42-5.15-0.72-7.939c-0.76-5.57-1.95-11.641-3.77-17.87
			c-1.87-6.21-4.19-11.96-6.58-17.04c-1.27-2.51-2.43-4.91-3.72-7.051c-0.63-1.079-1.2-2.149-1.82-3.129
			c-0.63-0.971-1.23-1.91-1.81-2.811c-1.11-1.82-2.29-3.34-3.26-4.72c-0.5-0.681-0.94-1.33-1.38-1.91
			c-0.45-0.56-0.86-1.08-1.24-1.55c-0.72-0.91-1.28-1.631-1.7-2.15c-0.17-0.23-0.32-0.42-0.43-0.57
			c-0.1-0.129-0.14-0.199-0.13-0.209c0.01-0.01,0.07,0.049,0.17,0.17c0.13,0.14,0.28,0.32,0.47,0.539
			c0.43,0.511,1.03,1.211,1.78,2.091c0.39,0.46,0.81,0.97,1.28,1.52c0.45,0.57,0.91,1.21,1.42,1.89c1,1.371,2.2,2.881,3.34,4.69
			c0.59,0.89,1.2,1.83,1.84,2.8c0.63,0.98,1.21,2.041,1.85,3.12c1.31,2.14,2.49,4.55,3.78,7.06c2.43,5.091,4.77,10.861,6.65,17.101
			c1.82,6.261,3.01,12.36,3.75,17.95c0.29,2.811,0.61,5.47,0.68,7.98c0.05,1.25,0.15,2.459,0.15,3.629
			c-0.01,1.16-0.01,2.28-0.02,3.351c0.04,2.13-0.15,4.06-0.24,5.75c-0.06,0.84-0.09,1.63-0.16,2.351
			c-0.09,0.719-0.17,1.369-0.24,1.969c-0.15,1.15-0.26,2.061-0.35,2.721c-0.04,0.29-0.08,0.52-0.1,0.71
			C38.24,394.29,38.22,394.37,38.21,394.37z"/>
	</g>
</g>
<g>
	<g>
		<path fill="#3D3A4B" d="M58.92,275.05c0.01,0-0.03,0.08-0.1,0.23c-0.09,0.17-0.2,0.38-0.34,0.64c-0.33,0.59-0.79,1.4-1.36,2.43
			c-0.29,0.53-0.64,1.101-0.98,1.75c-0.33,0.66-0.68,1.381-1.06,2.141c-0.38,0.77-0.79,1.59-1.23,2.46
			c-0.41,0.88-0.81,1.83-1.25,2.81c-0.43,0.99-0.9,2.021-1.34,3.11c-0.42,1.1-0.86,2.239-1.32,3.43c-0.23,0.591-0.46,1.19-0.69,1.8
			c-0.21,0.62-0.42,1.25-0.64,1.891c-0.43,1.279-0.88,2.6-1.33,3.949c-1.69,5.451-3.28,11.521-4.63,17.971
			c-1.31,6.46-2.22,12.67-2.9,18.33c-0.58,5.68-1.01,10.8-1.13,15.119c-0.11,2.16-0.13,4.11-0.14,5.82
			c-0.03,1.721-0.03,3.19,0.01,4.4c0.02,1.17,0.03,2.1,0.04,2.779c0,0.291,0,0.531,0,0.721c0,0.16-0.01,0.25-0.02,0.25
			c-0.01,0-0.02-0.08-0.03-0.25c-0.01-0.189-0.03-0.43-0.05-0.721c-0.03-0.68-0.08-1.609-0.14-2.779c-0.07-1.21-0.1-2.689-0.09-4.41
			c-0.02-1.72-0.02-3.67,0.06-5.84c0.07-4.33,0.46-9.471,1.02-15.16c0.65-5.68,1.56-11.91,2.87-18.391
			c1.35-6.459,2.97-12.549,4.68-18.01c0.46-1.35,0.92-2.67,1.36-3.959c0.22-0.641,0.44-1.271,0.65-1.891
			c0.24-0.609,0.48-1.21,0.71-1.811c0.47-1.18,0.92-2.33,1.35-3.42c0.45-1.09,0.94-2.109,1.38-3.1c0.45-0.98,0.86-1.93,1.28-2.811
			c0.45-0.859,0.87-1.68,1.27-2.449c0.4-0.76,0.76-1.471,1.1-2.13c0.35-0.65,0.72-1.21,1.02-1.74c0.61-1,1.09-1.8,1.45-2.38
			c0.16-0.25,0.28-0.45,0.39-0.61C58.86,275.109,58.91,275.04,58.92,275.05z"/>
	</g>
</g>
<g>
	<g>
		<path fill="#3D3A4B" d="M56.21,349.68c0.03,0.021-0.27,0.551-0.85,1.48s-1.38,2.3-2.32,4.02c-0.94,1.721-1.97,3.811-3.01,6.18
			c-1.02,2.381-2.03,5.041-2.92,7.891c-0.87,2.859-1.53,5.63-2.04,8.17c-0.48,2.54-0.81,4.85-1,6.801
			c-0.2,1.949-0.31,3.529-0.36,4.629c-0.06,1.101-0.1,1.7-0.14,1.7s-0.06-0.61-0.06-1.71c-0.02-1.1,0.04-2.689,0.19-4.66
			c0.14-1.959,0.44-4.289,0.89-6.859c0.48-2.561,1.13-5.35,2.01-8.23c0.9-2.869,1.93-5.54,2.98-7.93c1.07-2.37,2.14-4.46,3.13-6.17
			c0.98-1.71,1.83-3.061,2.47-3.95C55.82,350.15,56.18,349.66,56.21,349.68z"/>
	</g>
</g>
<polygon fill="#504E5E" points="22.88,386.689 57.81,386.689 53.58,422.36 27.23,422.36 "/>
<g>
	<polygon fill="#3D3A4B" points="24.15,418.51 27.12,422.36 53.58,422.36 56.63,418.641 	"/>
</g>
<g>
	<g>
		<ellipse fill="#FAFAFA" cx="40.26" cy="397.18" rx="16.19" ry="0.26"/>
	</g>
</g>
<g>
	<g>
		<ellipse fill="#FAFAFA" cx="40.26" cy="399.55" rx="16.19" ry="0.26"/>
	</g>
</g>
<g>
	<g>
		<ellipse fill="#FAFAFA" cx="40.39" cy="401.85" rx="15.62" ry="0.26"/>
	</g>
</g>
<g>
	<g>
		<g>
			<path fill="#D9594C" d="M399.59,396.23c2.99-1.541,6.521-1.74,9.84-1.201c1.79,0.291,3.65,0.83,4.86,2.171
				c1.21,1.34,1.45,3.7,0.05,4.85c-0.83,0.69-1.99,0.79-3.07,0.78c-2.6-0.03-5.489-0.49-7.56,1.08c-1.19,0.89-1.98,2.38-3.39,2.82
				c-1.391,0.43-2.95-0.391-3.69-1.641s-0.76-2.82-0.42-4.23C396.21,400.859,396.57,397.779,399.59,396.23z"/>
		</g>
	</g>
</g>
<g>
	<g>
		<g>
			<path fill="#D9594C" d="M392.73,382.99c1.829,2.609,5.39,1.75,7.039,0.15c1.65-1.601,2.351-3.91,2.98-6.111
				c1.45-5.039,2.91-10.319,1.83-15.449c-0.32-1.53-0.9-3.061-1.97-4.2c-1.08-1.14-2.73-1.819-4.25-1.42
				c-1.79,0.47-2.91,2.229-3.71,3.899c-2.37,4.91-3.62,10.36-3.641,15.811C390.99,378.221,391.29,380.891,392.73,382.99"/>
		</g>
	</g>
</g>
<g>
	<g>
		<g>
			<path fill="#D9594C" d="M387.7,386.74c1.99-2.36,2.359-5.801,1.479-8.75c-0.88-2.95-2.88-5.471-5.18-7.52
				c-2.7-2.41-5.87-4.281-9.28-5.48c-1.34-0.471-2.76-0.84-4.17-0.711c-1.42,0.141-2.84,0.861-3.5,2.121
				c-0.979,1.859-0.04,4.119,0.97,5.97c1.78,3.25,3.83,6.36,6.101,9.28c1.83,2.359,3.92,4.68,6.71,5.75s5.68,0.939,7.15-0.99"/>
		</g>
	</g>
</g>
<g>
	<g>
		<g>
			<g>
				<path fill="#3D3A4B" d="M392.61,422.42c0.029,0,0.09-0.42,0.17-1.189c0.08-0.86,0.189-1.951,0.319-3.24
					c0.15-1.36,0.351-2.99,0.73-4.75s0.97-3.67,1.729-5.61c0.79-1.93,1.74-3.68,2.87-5.08c1.11-1.409,2.41-2.42,3.62-3.01
					c1.21-0.601,2.3-0.84,3.05-0.95c0.761-0.08,1.181-0.14,1.181-0.17c0-0.029-0.42-0.04-1.2-0.02c-0.771,0.05-1.9,0.25-3.18,0.83
					c-1.28,0.569-2.65,1.6-3.82,3.039c-1.18,1.431-2.17,3.221-2.97,5.181c-0.771,1.97-1.36,3.899-1.721,5.7
					c-0.359,1.8-0.52,3.439-0.63,4.82c-0.1,1.379-0.14,2.489-0.16,3.26C392.56,421.99,392.57,422.42,392.61,422.42z"/>
			</g>
		</g>
	</g>
</g>
<g>
	<g>
		<g>
			<g>
				<path fill="#3D3A4B" d="M392.83,419.93c0.02,0,0.03-0.189,0.03-0.55c0-0.409,0-0.94,0-1.58c0-1.37,0-3.35,0.069-5.79
					c0.12-4.89,0.54-10.15,1.351-17.57c0.77-6.969,1.8-15.09,2.89-20.369c0.23-1.2,0.47-2.28,0.69-3.23
					c0.21-0.949,0.39-1.77,0.569-2.43c0.15-0.62,0.271-1.131,0.37-1.53c0.08-0.351,0.11-0.54,0.101-0.54
					c-0.011,0-0.08,0.17-0.19,0.52c-0.12,0.4-0.27,0.9-0.46,1.511c-0.2,0.659-0.41,1.47-0.65,2.409
					c-0.25,0.941-0.51,2.021-0.76,3.221c-1.08,4.779-2.22,11.46-3.04,18.9c-0.81,7.43-1.18,14.199-1.21,19.1
					c-0.03,2.45,0.021,4.43,0.08,5.8c0.04,0.64,0.07,1.16,0.1,1.58C392.79,419.74,392.81,419.93,392.83,419.93z"/>
			</g>
		</g>
	</g>
</g>
<g>
	<g>
		<g>
			<g>
				<path fill="#3D3A4B" d="M392.86,406.88c0.029,0,0.029-0.59-0.011-1.649c-0.06-1.061-0.21-2.59-0.5-4.461
					c-0.319-1.869-0.76-4.09-1.449-6.5c-0.301-1.1-1.011-3.739-2.721-7.689c-2.25-5.35-5.319-9.721-7.979-12.43
					c-0.63-0.721-1.32-1.24-1.88-1.75c-0.29-0.24-0.54-0.49-0.801-0.68c-0.26-0.181-0.5-0.351-0.729-0.5
					c-0.88-0.601-1.37-0.921-1.39-0.891c-0.08,0.109,1.96,1.311,4.539,4.05c2.57,2.74,5.551,7.08,7.78,12.38
					c1.25,2.881,2.12,5.44,2.73,7.62c0.71,2.39,1.189,4.58,1.54,6.431c0.34,1.85,0.54,3.369,0.66,4.42
					C392.76,406.29,392.83,406.88,392.86,406.88z"/>
			</g>
		</g>
	</g>
</g>
<g>
	<g>
		<path fill="#E0E0E0" d="M50.44,77.23l0.11,2.15c0,0,11.42-4.8,18.28-1.29l0,0c0.24,0.44,0.68,0.72,1.17,0.77l2.84,0.26
			c0.61,0.04,1.19-0.3,1.45-0.86l0,0c0,0,6.76-3.2,13.75,0.48l2.65,1.2L85.5,52.67L52.84,46.4L50.44,77.23z"/>
	</g>
	<g>
		<path fill="#EBEBEB" d="M48.61,74.21l0.11,3.87c0,0,11.32-6.76,22.65,0.22l-2.88-18.59C68.49,59.71,49.47,70.27,48.61,74.21z"/>
	</g>
	<g>
		<path fill="#F5F5F5" d="M46.47,46.21c0,0,13.57-10.44,23.84,4.14l1.06,27.96c0,0-12.41-12.6-24.02-3.26L46.47,46.21z"/>
	</g>
	<g>
		<path fill="#EBEBEB" d="M71.37,78.3c0,0,11.71-7.46,20.16,0.45l-2.44-25.53l-18.74-1.91L71.37,78.3z"/>
	</g>
	<g>
		<path fill="#F5F5F5" d="M70.29,50.37c0,0,4.04-9.04,12.62-8.16l5.49,0.75l2.94,25.65c0,0-13.45-1.55-19.98,9.72L70.29,50.37z"/>
	</g>
	<g>
		<g>
			<path fill="#E0E0E0" d="M71.37,78.3c-0.03,0-0.07-0.39-0.12-1.09c-0.04-0.8-0.1-1.8-0.16-2.98c-0.11-2.62-0.26-6.05-0.43-9.85
				c-0.16-3.8-0.31-7.23-0.43-9.85c-0.05-1.19-0.1-2.19-0.13-2.98c-0.03-0.71-0.03-1.1,0.01-1.1c0.03,0,0.09,0.38,0.17,1.09
				c0.08,0.7,0.17,1.72,0.28,2.98c0.2,2.52,0.4,6,0.56,9.85c0.16,3.85,0.26,7.33,0.3,9.85c0.02,1.26,0.03,2.28,0.02,2.99
				C71.42,77.91,71.4,78.3,71.37,78.3z"/>
		</g>
	</g>
	<g>
		<g>
			<path fill="#E0E0E0" d="M85.48,47.18c-0.01,0.08-0.88-0.08-2.27-0.06s-3.31,0.3-5.27,1.12c-1.95,0.83-3.5,2.01-4.48,3
				c-0.99,0.979-1.47,1.71-1.54,1.66c-0.02,0,0.08-0.2,0.29-0.54c0.2-0.34,0.55-0.81,1.02-1.34c0.94-1.07,2.51-2.34,4.53-3.19
				c2.02-0.85,4.03-1.09,5.45-1.02c0.71,0.03,1.29,0.1,1.67,0.2C85.28,47.09,85.49,47.15,85.48,47.18z"/>
		</g>
	</g>
	<g>
		<g>
			<path fill="#E0E0E0" d="M86.2,50.09c-0.01,0.08-0.88-0.08-2.27-0.06c-1.39,0.02-3.31,0.3-5.27,1.12c-1.95,0.83-3.5,2.01-4.48,3
				c-0.99,0.98-1.47,1.71-1.54,1.66c-0.03-0.02,0.08-0.21,0.28-0.55c0.2-0.34,0.55-0.81,1.02-1.34c0.94-1.07,2.51-2.34,4.53-3.19
				s4.03-1.09,5.45-1.02c0.71,0.03,1.29,0.1,1.67,0.2C85.99,50,86.2,50.06,86.2,50.09z"/>
		</g>
	</g>
	<g>
		<g>
			<path fill="#E0E0E0" d="M86.37,53.27c-0.01,0.08-0.88-0.08-2.27-0.06s-3.31,0.3-5.27,1.12c-1.95,0.83-3.5,2.01-4.48,3
				c-0.99,0.98-1.47,1.71-1.54,1.66c-0.03-0.021,0.07-0.21,0.28-0.55c0.2-0.34,0.55-0.81,1.02-1.34c0.94-1.07,2.51-2.34,4.53-3.19
				c2.02-0.85,4.03-1.09,5.45-1.02c0.71,0.03,1.29,0.1,1.67,0.2C86.17,53.17,86.38,53.23,86.37,53.27z"/>
		</g>
	</g>
	<g>
		<g>
			<path fill="#E0E0E0" d="M86.97,56.21c-0.01,0.08-0.88-0.08-2.27-0.06c-1.39,0.02-3.31,0.3-5.27,1.12c-1.95,0.83-3.5,2.01-4.48,3
				c-0.99,0.98-1.47,1.71-1.54,1.66c-0.03-0.02,0.08-0.21,0.28-0.55c0.2-0.34,0.55-0.81,1.02-1.34c0.94-1.07,2.51-2.34,4.53-3.19
				c2.02-0.85,4.03-1.09,5.45-1.02c0.71,0.03,1.29,0.1,1.67,0.2C86.77,56.12,86.98,56.18,86.97,56.21z"/>
		</g>
	</g>
	<g>
		<g>
			<path fill="#E0E0E0" d="M87.67,59.32c-0.01,0.08-0.88-0.08-2.27-0.06c-1.39,0.021-3.31,0.3-5.27,1.12c-1.95,0.83-3.5,2.01-4.48,3
				c-0.99,0.98-1.47,1.71-1.54,1.66c-0.03-0.02,0.08-0.21,0.28-0.55c0.2-0.34,0.55-0.81,1.02-1.34c0.94-1.07,2.51-2.34,4.53-3.19
				s4.03-1.09,5.45-1.02c0.71,0.03,1.29,0.1,1.67,0.2C87.46,59.22,87.67,59.29,87.67,59.32z"/>
		</g>
	</g>
	<g>
		<g>
			<path fill="#E0E0E0" d="M88.57,62.79c-0.01,0.08-0.95-0.1-2.46-0.04c-0.76,0.01-1.65,0.13-2.64,0.3
				c-0.98,0.21-2.04,0.49-3.12,0.9c-1.08,0.42-2.06,0.92-2.92,1.43c-0.84,0.54-1.58,1.06-2.13,1.58c-1.13,1.01-1.65,1.81-1.72,1.76
				c-0.03-0.02,0.09-0.229,0.32-0.59c0.11-0.19,0.27-0.4,0.47-0.63c0.19-0.24,0.42-0.51,0.7-0.77c0.54-0.56,1.28-1.13,2.13-1.7
				c0.87-0.55,1.87-1.06,2.98-1.5c1.11-0.42,2.2-0.7,3.21-0.88c1.01-0.15,1.93-0.24,2.71-0.21c0.39-0.01,0.74,0.03,1.04,0.06
				c0.31,0.03,0.57,0.06,0.78,0.12C88.35,62.7,88.58,62.76,88.57,62.79z"/>
		</g>
	</g>
	<g>
		<g>
			<path fill="#E0E0E0" d="M88.7,65.58c-0.01,0.08-0.95-0.1-2.47-0.02c-0.76,0.02-1.66,0.17-2.64,0.37c-0.98,0.23-2.03,0.56-3.1,1
				c-1.06,0.46-2.03,0.99-2.88,1.53c-0.83,0.57-1.56,1.11-2.1,1.64c-1.12,1.03-1.64,1.83-1.71,1.79c-0.03-0.02,0.09-0.23,0.32-0.59
				c0.11-0.19,0.27-0.4,0.47-0.64c0.19-0.24,0.42-0.51,0.7-0.78c0.53-0.57,1.26-1.15,2.09-1.75c0.86-0.57,1.85-1.13,2.94-1.6
				c1.1-0.45,2.19-0.78,3.19-0.99c1.01-0.18,1.94-0.3,2.72-0.28c0.39-0.01,0.74,0.01,1.05,0.05c0.31,0.02,0.57,0.06,0.78,0.11
				C88.48,65.48,88.71,65.55,88.7,65.58z"/>
		</g>
	</g>
	<g>
		<g>
			<path fill="#E0E0E0" d="M67.42,71.11c-0.06,0.05-0.65-0.75-1.85-1.75c-1.19-1-3.07-2.17-5.39-2.7c-2.32-0.53-4.52-0.31-6.03,0.07
				c-1.52,0.38-2.39,0.84-2.43,0.77c-0.01-0.03,0.19-0.17,0.59-0.38s0.99-0.47,1.76-0.7c1.52-0.47,3.81-0.76,6.22-0.21
				c2.41,0.56,4.34,1.81,5.5,2.9c0.59,0.55,1.01,1.04,1.27,1.4C67.33,70.88,67.45,71.09,67.42,71.11z"/>
		</g>
	</g>
	<g>
		<g>
			<path fill="#E0E0E0" d="M67.2,67.52c-0.06,0.05-0.65-0.75-1.85-1.75c-1.19-1-3.07-2.17-5.39-2.7c-2.32-0.53-4.52-0.31-6.03,0.07
				c-1.52,0.38-2.4,0.84-2.43,0.77c-0.01-0.03,0.19-0.17,0.59-0.38c0.4-0.21,0.99-0.47,1.76-0.7c1.52-0.47,3.81-0.76,6.22-0.21
				c2.41,0.56,4.34,1.81,5.5,2.9c0.59,0.55,1.01,1.04,1.28,1.4C67.11,67.29,67.23,67.5,67.2,67.52z"/>
		</g>
	</g>
	<g>
		<g>
			<path fill="#E0E0E0" d="M66.98,63.93c-0.06,0.05-0.65-0.75-1.85-1.75c-1.19-1-3.07-2.17-5.39-2.7c-2.32-0.53-4.52-0.31-6.03,0.07
				c-1.52,0.38-2.4,0.84-2.43,0.77c-0.01-0.03,0.19-0.17,0.59-0.38c0.39-0.21,0.99-0.47,1.76-0.7c1.52-0.47,3.81-0.76,6.22-0.21
				c2.41,0.56,4.34,1.81,5.5,2.9c0.59,0.55,1.01,1.04,1.28,1.4C66.89,63.7,67.01,63.91,66.98,63.93z"/>
		</g>
	</g>
	<g>
		<g>
			<path fill="#E0E0E0" d="M66.76,60.34c-0.06,0.05-0.65-0.75-1.85-1.75c-1.19-1-3.07-2.17-5.39-2.7c-2.32-0.53-4.52-0.31-6.03,0.07
				c-1.52,0.38-2.39,0.84-2.43,0.77c-0.01-0.03,0.19-0.17,0.59-0.38s0.99-0.47,1.76-0.7c1.52-0.47,3.81-0.76,6.22-0.21
				c2.41,0.56,4.34,1.81,5.5,2.9c0.59,0.55,1.01,1.04,1.27,1.4C66.67,60.11,66.79,60.32,66.76,60.34z"/>
		</g>
	</g>
	<g>
		<g>
			<path fill="#E0E0E0" d="M66.54,56.75C66.48,56.8,65.89,56,64.69,55c-1.19-1-3.07-2.17-5.39-2.7c-2.32-0.53-4.52-0.31-6.03,0.07
				c-1.52,0.38-2.39,0.84-2.43,0.77c-0.01-0.03,0.19-0.17,0.59-0.38c0.4-0.21,0.99-0.47,1.76-0.7c1.52-0.47,3.81-0.76,6.22-0.21
				c2.41,0.56,4.34,1.81,5.5,2.9c0.59,0.55,1.01,1.04,1.27,1.4C66.44,56.52,66.57,56.73,66.54,56.75z"/>
		</g>
	</g>
	<g>
		<g>
			<path fill="#E0E0E0" d="M66.32,53.16c-0.06,0.05-0.65-0.75-1.85-1.75c-1.19-1-3.07-2.17-5.39-2.7c-2.32-0.53-4.52-0.31-6.03,0.07
				c-1.52,0.38-2.4,0.84-2.43,0.77c-0.01-0.03,0.19-0.17,0.59-0.38c0.39-0.21,0.99-0.47,1.76-0.7c1.52-0.47,3.81-0.76,6.22-0.21
				c2.41,0.56,4.34,1.81,5.5,2.9c0.59,0.55,1.01,1.04,1.28,1.4C66.22,52.93,66.34,53.14,66.32,53.16z"/>
		</g>
	</g>
	<g>
		<path fill="#D9594C" d="M99.84,157.96l1.95,2.48c0,0,9.59-15.37,20.74-16.96l0,0c0.65,0.32,1.42,0.3,2.04-0.07l3.6-2.09
			c0.77-0.47,1.17-1.36,1-2.25l0,0c0,0,5.37-9.53,16.83-11.02l4.18-0.8l-28.75-26.31L76.7,119.13L99.84,157.96z"/>
	</g>
	<g>
		<path fill="#EBEBEB" d="M95.1,155.9l3.39,4.54c0,0,7.81-17.62,27.24-18.85l-19.12-19.76C106.61,121.82,92.81,150.47,95.1,155.9z"
			/>
	</g>
	<g>
		<path fill="#F5F5F5" d="M68.92,124.26c0,0,7.41-23.91,31.96-15.17l24.85,32.49c0,0-25.45-4.58-31.44,16.38L68.92,124.26z"/>
	</g>
	<g>
		<path fill="#EBEBEB" d="M125.73,141.59c0,0,7.68-18.78,24.45-16.47l-24.45-28.43l-23.99,13.53L125.73,141.59z"/>
	</g>
	<g>
		<path fill="#F5F5F5" d="M100.88,109.14c0,0-2.79-14.2,8.18-20.39l7.19-3.74l25.15,28.16c0,0-17.36,9.5-15.67,28.47L100.88,109.14z
			"/>
	</g>
	<g>
		<g>
			<path fill="#3D3A4B" d="M125.73,141.59c-0.03,0.02-0.4-0.41-1.04-1.22c-0.69-0.88-1.6-2.04-2.69-3.44
				c-2.31-2.99-5.39-6.99-8.8-11.41c-3.42-4.41-6.52-8.4-8.83-11.39c-1.09-1.4-2-2.55-2.69-3.44c-0.63-0.81-0.97-1.28-0.94-1.3
				c0.03-0.02,0.42,0.39,1.1,1.17c0.69,0.77,1.64,1.92,2.82,3.34c2.35,2.85,5.52,6.84,8.96,11.3s6.5,8.53,8.68,11.51
				c1.04,1.44,1.9,2.63,2.56,3.54C125.44,141.09,125.76,141.56,125.73,141.59z"/>
		</g>
	</g>
	<g>
		<g>
			<path fill="#3D3A4B" d="M116.79,93.28c0.02,0.1-1.2,0.33-2.88,1.34c-1.68,0.99-3.79,2.77-5.55,5.19
				c-1.81,2.39-2.82,4.96-3.27,6.85c-0.44,1.91-0.37,3.15-0.48,3.15c-0.04,0-0.06-0.3-0.08-0.86c-0.04-0.56,0.04-1.37,0.2-2.36
				c0.37-1.96,1.35-4.64,3.21-7.09c1.81-2.48,4.02-4.26,5.79-5.2c0.89-0.47,1.66-0.75,2.2-0.89
				C116.48,93.3,116.79,93.25,116.79,93.28z"/>
		</g>
	</g>
	<g>
		<g>
			<path fill="#3D3A4B" d="M129.18,105.17c0.04,0.09-1.13,0.61-2.78,1.8c-0.83,0.59-1.75,1.39-2.69,2.34
				c-0.92,0.98-1.85,2.13-2.68,3.44c-0.81,1.32-1.43,2.67-1.9,3.93c-0.44,1.27-0.75,2.45-0.91,3.45c-0.34,2.01-0.28,3.29-0.38,3.29
				c-0.04,0-0.07-0.32-0.1-0.9c-0.02-0.29-0.03-0.65,0-1.06c0.03-0.41,0.03-0.88,0.12-1.4c0.12-1.03,0.39-2.25,0.82-3.56
				c0.45-1.3,1.08-2.69,1.91-4.05c0.85-1.35,1.82-2.52,2.78-3.51c0.98-0.96,1.95-1.75,2.83-2.31c0.42-0.31,0.84-0.52,1.2-0.72
				c0.36-0.21,0.68-0.36,0.95-0.47C128.86,105.25,129.16,105.13,129.18,105.17z"/>
		</g>
	</g>
	<g>
		<g>
			<path fill="#3D3A4B" d="M133.19,108.56c0.04,0.09-1.23,0.65-3.01,1.99c-0.9,0.64-1.88,1.55-2.91,2.58
				c-1,1.07-2.04,2.31-2.98,3.71c-0.93,1.41-1.69,2.84-2.28,4.18c-0.54,1.36-0.98,2.61-1.2,3.7c-0.48,2.17-0.41,3.561-0.51,3.561
				c-0.04,0-0.06-0.34-0.09-0.98c-0.02-0.32,0-0.7,0.04-1.15c0.03-0.45,0.08-0.96,0.2-1.51c0.17-1.12,0.58-2.41,1.11-3.81
				c0.58-1.38,1.34-2.84,2.29-4.28c0.97-1.43,2.03-2.69,3.07-3.76c1.08-1.04,2.09-1.92,3.04-2.54c0.46-0.33,0.9-0.59,1.29-0.81
				c0.39-0.23,0.73-0.41,1.02-0.53C132.85,108.65,133.17,108.52,133.19,108.56z"/>
		</g>
	</g>
	<g>
		<g>
			<path fill="#3D3A4B" d="M135.7,111.77c0.05,0.09-1.24,0.65-3,2.02c-0.9,0.66-1.85,1.59-2.86,2.66c-0.97,1.1-1.96,2.39-2.87,3.82
				c-0.89,1.45-1.6,2.91-2.16,4.27c-0.51,1.38-0.92,2.65-1.12,3.74c-0.45,2.18-0.38,3.58-0.49,3.58c-0.04,0-0.07-0.35-0.09-0.98
				c-0.02-0.32-0.01-0.7,0.03-1.15c0.03-0.45,0.07-0.96,0.18-1.52c0.15-1.13,0.54-2.43,1.03-3.85c0.55-1.4,1.26-2.89,2.16-4.37
				c0.93-1.47,1.95-2.77,2.96-3.87c1.05-1.07,2.05-1.99,2.99-2.63c0.45-0.35,0.89-0.61,1.28-0.83c0.38-0.24,0.72-0.42,1.02-0.54
				C135.36,111.86,135.68,111.74,135.7,111.77z"/>
		</g>
	</g>
	<g>
		<g>
			<path fill="#3D3A4B" d="M114.95,136.33c-0.03,0.09-1.39-0.38-3.68-0.58c-2.27-0.21-5.51-0.02-8.75,1.31
				c-3.24,1.33-5.68,3.47-7.15,5.21c-1.49,1.75-2.13,3.05-2.21,3c-0.03-0.01,0.1-0.35,0.41-0.93c0.3-0.58,0.8-1.38,1.52-2.3
				c1.43-1.84,3.9-4.09,7.24-5.46s6.68-1.5,8.99-1.19c1.16,0.15,2.08,0.37,2.7,0.57C114.63,136.15,114.96,136.3,114.95,136.33z"/>
		</g>
	</g>
	<g>
		<g>
			<path fill="#3D3A4B" d="M111.66,132.23c-0.03,0.09-1.39-0.38-3.68-0.58c-2.27-0.21-5.51-0.02-8.75,1.31
				c-3.24,1.33-5.68,3.47-7.15,5.21c-1.49,1.75-2.13,3.05-2.21,3c-0.03-0.01,0.1-0.35,0.41-0.93c0.3-0.58,0.8-1.38,1.52-2.3
				c1.43-1.84,3.9-4.09,7.24-5.46s6.68-1.5,8.99-1.19c1.16,0.15,2.08,0.37,2.7,0.57C111.34,132.05,111.67,132.2,111.66,132.23z"/>
		</g>
	</g>
	<g>
		<g>
			<path fill="#3D3A4B" d="M108.37,128.13c-0.03,0.09-1.39-0.38-3.68-0.58c-2.27-0.21-5.51-0.02-8.75,1.31
				c-3.24,1.33-5.68,3.47-7.15,5.21c-1.49,1.75-2.13,3.05-2.21,3c-0.03-0.01,0.1-0.35,0.41-0.93c0.3-0.58,0.8-1.38,1.52-2.3
				c1.43-1.84,3.9-4.09,7.24-5.46s6.68-1.5,8.99-1.19c1.16,0.15,2.08,0.37,2.7,0.57C108.05,127.95,108.38,128.1,108.37,128.13z"/>
		</g>
	</g>
	<g>
		<g>
			<path fill="#3D3A4B" d="M105.08,124.03c-0.03,0.09-1.39-0.38-3.68-0.58c-2.27-0.21-5.51-0.02-8.75,1.31
				c-3.24,1.33-5.68,3.47-7.15,5.21c-1.49,1.75-2.13,3.05-2.21,3c-0.03-0.01,0.1-0.35,0.41-0.93c0.3-0.58,0.8-1.38,1.52-2.3
				c1.43-1.84,3.9-4.09,7.24-5.46c3.34-1.37,6.68-1.5,8.99-1.19c1.16,0.15,2.08,0.37,2.7,0.57
				C104.76,123.85,105.09,124,105.08,124.03z"/>
		</g>
	</g>
	<g>
		<g>
			<path fill="#3D3A4B" d="M101.79,119.92c-0.03,0.09-1.39-0.38-3.68-0.58c-2.27-0.21-5.51-0.02-8.75,1.31
				c-3.24,1.33-5.68,3.47-7.15,5.21c-1.49,1.75-2.13,3.05-2.21,3c-0.03-0.01,0.1-0.35,0.41-0.93c0.3-0.58,0.8-1.38,1.52-2.3
				c1.43-1.84,3.9-4.09,7.24-5.46s6.68-1.5,8.99-1.19c1.16,0.15,2.08,0.37,2.7,0.57C101.47,119.75,101.79,119.89,101.79,119.92z"/>
		</g>
	</g>
	<g>
		<g>
			<path fill="#3D3A4B" d="M98.49,115.82c-0.03,0.09-1.39-0.38-3.68-0.58c-2.27-0.21-5.51-0.021-8.75,1.31
				c-3.24,1.33-5.68,3.47-7.15,5.21c-1.49,1.75-2.13,3.05-2.21,3c-0.03-0.01,0.1-0.35,0.41-0.93c0.3-0.58,0.8-1.38,1.52-2.3
				c1.43-1.84,3.9-4.09,7.24-5.46c3.34-1.37,6.68-1.5,8.99-1.19c1.16,0.15,2.08,0.37,2.7,0.57
				C98.17,115.65,98.5,115.79,98.49,115.82z"/>
		</g>
	</g>
	<g>
		<path fill="#EBEBEB" d="M107.63,110.8l6.87,7.62c0,0,2.14-10.54,11.47-14.54l-7.25-7.73C118.71,96.15,109.2,99.36,107.63,110.8z"
			/>
	</g>
	<g>
		<g>
			<path fill="#D9594C" d="M132.27,33.72l-1.02,2.24c0,0,14.09,1.15,19.18,8.3l0,0c0.01,0.57,0.3,1.09,0.78,1.39l2.74,1.75
				c0.6,0.36,1.36,0.32,1.92-0.11l0,0c0,0,8.53,0.31,13.66,7.72l2.05,2.61l9.09-30.34L150.9,3.77L132.27,33.72z"/>
		</g>
		<g>
			<path fill="#EBEBEB" d="M132,29.7l-1.93,3.98c0,0,15.01-0.9,22.82,12.13l6.85-20.33C159.75,25.47,134.94,26.17,132,29.7z"/>
		</g>
		<g>
			<path fill="#F5F5F5" d="M144.56,0.22c0,0,19.23-3.43,21.96,16.72L152.89,45.8c0,0-5.94-19.28-22.61-15.93L144.56,0.22z"/>
		</g>
		<g>
			<path fill="#EBEBEB" d="M152.89,45.81c0,0,15.77-1.4,20.17,11.05l10.95-27.13l-17.97-11.79L152.89,45.81z"/>
		</g>
		<g>
			<path fill="#F5F5F5" d="M166.49,16.96c0,0,8.85-7.02,17.07-1.63l5.17,3.64L178.22,46.49c0,0-12.8-8.64-25.34-0.67L166.49,16.96z"
				/>
		</g>
		<g>
			<g>
				<path fill="#3D3A4B" d="M152.89,45.81c-0.03-0.02,0.13-0.43,0.45-1.17c0.38-0.83,0.84-1.87,1.4-3.11
					c1.26-2.71,2.91-6.26,4.74-10.19c1.83-3.93,3.48-7.48,4.75-10.19c0.57-1.23,1.05-2.26,1.44-3.09c0.34-0.73,0.55-1.12,0.58-1.11
					c0.03,0.01-0.11,0.44-0.4,1.19c-0.28,0.75-0.73,1.83-1.29,3.16c-1.12,2.65-2.75,6.28-4.61,10.26c-1.86,3.98-3.6,7.56-4.88,10.13
					c-0.64,1.29-1.17,2.33-1.55,3.04C153.15,45.44,152.93,45.82,152.89,45.81z"/>
			</g>
		</g>
		<g>
			<g>
				<path fill="#3D3A4B" d="M183.54,21.72c-0.06,0.07-0.85-0.54-2.27-1.25c-1.42-0.71-3.51-1.439-5.92-1.63
					c-2.41-0.19-4.6,0.2-6.11,0.68c-1.52,0.48-2.39,0.96-2.43,0.88c-0.02-0.03,0.19-0.17,0.58-0.41c0.38-0.24,0.98-0.53,1.74-0.82
					c1.52-0.58,3.77-1.04,6.27-0.85c2.49,0.2,4.65,1.01,6.06,1.83c0.71,0.4,1.25,0.78,1.59,1.08
					C183.38,21.52,183.56,21.69,183.54,21.72z"/>
			</g>
		</g>
		<g>
			<g>
				<path fill="#3D3A4B" d="M182.74,25.04c-0.06,0.07-0.85-0.54-2.27-1.25c-1.41-0.71-3.51-1.44-5.92-1.63
					c-2.41-0.19-4.6,0.2-6.11,0.68c-1.52,0.48-2.39,0.96-2.43,0.88c-0.02-0.03,0.19-0.17,0.58-0.41c0.38-0.24,0.98-0.53,1.74-0.82
					c1.52-0.58,3.77-1.04,6.27-0.85c2.49,0.2,4.65,1.01,6.06,1.83c0.71,0.4,1.25,0.78,1.59,1.08
					C182.58,24.84,182.76,25.01,182.74,25.04z"/>
			</g>
		</g>
		<g>
			<g>
				<path fill="#3D3A4B" d="M181.24,28.34c-0.06,0.07-0.84-0.54-2.27-1.25c-1.42-0.71-3.51-1.44-5.92-1.63
					c-2.41-0.19-4.6,0.2-6.11,0.68c-1.52,0.48-2.39,0.96-2.43,0.88c-0.02-0.03,0.19-0.17,0.58-0.41c0.38-0.24,0.98-0.53,1.74-0.82
					c1.52-0.58,3.77-1.04,6.27-0.85c2.49,0.2,4.65,1.01,6.06,1.83c0.71,0.4,1.25,0.78,1.59,1.08
					C181.09,28.14,181.27,28.32,181.24,28.34z"/>
			</g>
		</g>
		<g>
			<g>
				<path fill="#3D3A4B" d="M180.31,31.65c-0.06,0.07-0.85-0.54-2.27-1.25s-3.51-1.44-5.92-1.63c-2.41-0.19-4.6,0.2-6.11,0.68
					c-1.52,0.48-2.39,0.96-2.43,0.88c-0.02-0.03,0.19-0.17,0.58-0.41c0.38-0.24,0.98-0.53,1.74-0.82c1.52-0.58,3.77-1.04,6.27-0.85
					c2.49,0.2,4.65,1.01,6.06,1.83c0.71,0.4,1.25,0.78,1.59,1.08C180.15,31.44,180.33,31.62,180.31,31.65z"/>
			</g>
		</g>
		<g>
			<g>
				<path fill="#3D3A4B" d="M179.38,35.15c-0.06,0.07-0.85-0.54-2.27-1.25s-3.51-1.44-5.92-1.63s-4.6,0.2-6.11,0.68
					c-1.52,0.48-2.39,0.96-2.43,0.88c-0.02-0.03,0.19-0.17,0.58-0.41c0.38-0.24,0.98-0.53,1.74-0.82c1.52-0.58,3.77-1.04,6.27-0.85
					c2.49,0.2,4.65,1.01,6.06,1.83c0.71,0.4,1.25,0.78,1.59,1.08C179.22,34.95,179.4,35.13,179.38,35.15z"/>
			</g>
		</g>
		<g>
			<g>
				<path fill="#3D3A4B" d="M178.46,39.15c-0.06,0.08-0.91-0.6-2.47-1.34c-0.77-0.39-1.74-0.74-2.83-1.08
					c-1.1-0.31-2.33-0.58-3.63-0.73c-1.31-0.14-2.57-0.16-3.7-0.09c-1.13,0.11-2.15,0.24-2.98,0.48c-1.67,0.43-2.62,0.97-2.67,0.88
					c-0.02-0.03,0.21-0.18,0.64-0.43c0.21-0.13,0.48-0.26,0.81-0.39c0.32-0.14,0.69-0.29,1.12-0.41c0.84-0.29,1.88-0.47,3.05-0.6
					c1.17-0.1,2.46-0.09,3.8,0.05c1.34,0.16,2.6,0.45,3.72,0.79c1.11,0.38,2.09,0.77,2.85,1.21c0.4,0.2,0.73,0.42,1.02,0.61
					c0.3,0.19,0.54,0.36,0.73,0.53C178.29,38.93,178.48,39.12,178.46,39.15z"/>
			</g>
		</g>
		<g>
			<g>
				<path fill="#3D3A4B" d="M177.13,42.04c-0.06,0.08-0.91-0.6-2.5-1.32c-0.78-0.38-1.77-0.7-2.86-1.02
					c-1.11-0.28-2.35-0.5-3.67-0.62c-1.32-0.09-2.58-0.07-3.72,0.03c-1.13,0.14-2.16,0.3-2.99,0.55c-1.67,0.46-2.63,0.99-2.67,0.91
					c-0.02-0.03,0.21-0.18,0.64-0.43c0.21-0.13,0.48-0.26,0.81-0.4c0.32-0.15,0.69-0.3,1.12-0.43c0.84-0.3,1.88-0.51,3.04-0.68
					c1.17-0.13,2.46-0.17,3.82-0.07c1.35,0.12,2.62,0.36,3.76,0.67c1.12,0.35,2.12,0.72,2.9,1.15c0.4,0.19,0.74,0.4,1.04,0.6
					c0.3,0.19,0.55,0.36,0.74,0.52C176.96,41.82,177.16,42.01,177.13,42.04z"/>
			</g>
		</g>
		<g>
			<g>
				<path fill="#3D3A4B" d="M152.68,36.45c-0.09,0.02-0.26-1.1-0.95-2.75c-0.68-1.64-1.97-3.81-4.04-5.57
					c-2.07-1.76-4.42-2.69-6.14-3.1c-1.74-0.42-2.87-0.41-2.86-0.5c0-0.03,0.28-0.07,0.79-0.07c0.51,0,1.25,0.05,2.15,0.21
					c1.79,0.32,4.25,1.23,6.4,3.06c2.15,1.83,3.44,4.12,4.04,5.83c0.31,0.86,0.48,1.58,0.56,2.09
					C152.7,36.16,152.71,36.45,152.68,36.45z"/>
			</g>
		</g>
		<g>
			<g>
				<path fill="#3D3A4B" d="M154.34,32.7c-0.09,0.02-0.26-1.1-0.95-2.75c-0.68-1.64-1.97-3.81-4.04-5.57
					c-2.07-1.76-4.42-2.69-6.14-3.1c-1.74-0.42-2.87-0.41-2.86-0.5c0-0.03,0.28-0.07,0.79-0.07c0.51,0,1.25,0.05,2.15,0.21
					c1.79,0.32,4.25,1.23,6.4,3.06s3.44,4.12,4.04,5.83c0.31,0.86,0.48,1.58,0.55,2.09C154.37,32.41,154.38,32.7,154.34,32.7z"/>
			</g>
		</g>
		<g>
			<g>
				<path fill="#3D3A4B" d="M156.01,28.95c-0.09,0.02-0.26-1.1-0.95-2.75c-0.68-1.64-1.97-3.81-4.04-5.57
					c-2.07-1.76-4.42-2.69-6.14-3.1c-1.74-0.42-2.87-0.41-2.86-0.5c0-0.03,0.28-0.07,0.79-0.07c0.51,0,1.25,0.05,2.15,0.21
					c1.79,0.32,4.25,1.23,6.4,3.06s3.44,4.12,4.04,5.83c0.31,0.86,0.48,1.58,0.56,2.09C156.03,28.66,156.04,28.95,156.01,28.95z"/>
			</g>
		</g>
		<g>
			<g>
				<path fill="#3D3A4B" d="M157.67,25.2c-0.09,0.02-0.26-1.1-0.95-2.75c-0.68-1.64-1.97-3.81-4.04-5.57
					c-2.07-1.76-4.42-2.69-6.14-3.1c-1.74-0.42-2.87-0.41-2.86-0.5c0-0.03,0.28-0.07,0.79-0.07c0.51,0,1.25,0.05,2.15,0.21
					c1.79,0.32,4.25,1.23,6.4,3.06s3.44,4.12,4.04,5.83c0.31,0.86,0.48,1.58,0.56,2.09C157.7,24.91,157.7,25.19,157.67,25.2z"/>
			</g>
		</g>
		<g>
			<g>
				<path fill="#3D3A4B" d="M159.34,21.45c-0.09,0.02-0.26-1.1-0.95-2.75c-0.68-1.64-1.97-3.81-4.04-5.57
					c-2.07-1.76-4.42-2.69-6.14-3.1c-1.74-0.42-2.87-0.41-2.86-0.5c0-0.03,0.28-0.07,0.79-0.07c0.51,0,1.25,0.05,2.15,0.21
					c1.79,0.32,4.25,1.23,6.4,3.06s3.44,4.12,4.04,5.83c0.31,0.86,0.48,1.58,0.56,2.09C159.36,21.16,159.37,21.44,159.34,21.45z"/>
			</g>
		</g>
		<g>
			<g>
				<path fill="#3D3A4B" d="M161,17.7c-0.09,0.02-0.26-1.1-0.95-2.75c-0.68-1.64-1.97-3.81-4.04-5.57c-2.07-1.76-4.42-2.69-6.14-3.1
					c-1.74-0.42-2.87-0.41-2.86-0.5c0-0.03,0.28-0.07,0.79-0.07c0.51,0,1.25,0.05,2.15,0.21c1.79,0.32,4.25,1.23,6.4,3.06
					s3.44,4.12,4.04,5.83c0.31,0.86,0.48,1.58,0.56,2.09C161.02,17.41,161.03,17.69,161,17.7z"/>
			</g>
		</g>
	</g>
</g>
<g>
	<g>
		<g>
			<path fill="#D9594C" d="M317.17,128.67l-1.689,2.66c0,0,17.689,3.93,22.899,13.91l0,0c-0.09,0.72,0.19,1.44,0.75,1.91l3.17,2.7
				c0.7,0.57,1.67,0.65,2.45,0.2l0,0c0,0,10.77,1.89,15.99,12.19l2.14,3.67l16.86-36.92l-33.67-35.08L317.17,128.67z"/>
		</g>
		<g>
			<path fill="#EBEBEB" d="M317.54,123.51l-3.15,4.71c0,0,19.21,1.5,26.851,19.4l12.27-24.61
				C353.5,123.01,321.89,119.54,317.54,123.51z"/>
		</g>
		<g>
			<path fill="#F5F5F5" d="M338.65,88.29c0,0,25.02-0.98,24.939,25.08l-22.359,34.25c0,0-4.16-25.52-25.91-24.19L338.65,88.29z"/>
		</g>
		<g>
			<path fill="#EBEBEB" d="M341.24,147.63c0,0,20.27,0.99,23.67,17.57l18.66-32.52l-20.75-18.12L341.24,147.63z"/>
		</g>
		<g>
			<path fill="#F5F5F5" d="M363.56,113.39c0,0,12.46-7.36,21.95,0.93l5.92,5.53l-18.17,33.09c0,0-14.74-13.21-32.06-5.29
				L363.56,113.39z"/>
		</g>
		<g>
			<g>
				<path fill="#3D3A4B" d="M341.24,147.63c-0.03-0.02,0.26-0.51,0.8-1.39c0.6-0.95,1.39-2.19,2.34-3.69
					c2.05-3.17,4.79-7.41,7.83-12.1c3.02-4.7,5.75-8.94,7.79-12.12c0.95-1.5,1.74-2.74,2.35-3.68c0.561-0.87,0.881-1.34,0.91-1.32
					c0.03,0.02-0.229,0.52-0.74,1.43c-0.5,0.9-1.26,2.19-2.21,3.77c-1.899,3.16-4.609,7.48-7.67,12.21
					c-3.06,4.729-5.88,8.97-7.96,12.02c-1.01,1.46-1.84,2.67-2.479,3.6C341.61,147.19,341.27,147.65,341.24,147.63z"/>
			</g>
		</g>
		<g>
			<g>
				<path fill="#3D3A4B" d="M384.37,122.43c-0.07,0.07-0.95-0.86-2.63-2.02c-0.83-0.59-1.891-1.19-3.11-1.76
					c-1.229-0.54-2.63-1.04-4.14-1.38c-1.521-0.32-3-0.46-4.34-0.48c-1.341,0.01-2.561,0.11-3.561,0.29
					c-2.01,0.35-3.2,0.83-3.229,0.74c-0.011-0.03,0.27-0.17,0.81-0.39c0.271-0.12,0.6-0.24,1-0.35c0.4-0.11,0.84-0.27,1.36-0.36
					c1.01-0.24,2.25-0.38,3.63-0.41c1.38,0,2.899,0.12,4.45,0.45c1.55,0.35,2.979,0.87,4.229,1.46c1.24,0.61,2.3,1.26,3.12,1.9
					c0.43,0.29,0.771,0.62,1.08,0.89c0.32,0.27,0.56,0.52,0.76,0.74C384.19,122.16,384.39,122.4,384.37,122.43z"/>
			</g>
		</g>
		<g>
			<g>
				<path fill="#3D3A4B" d="M382.77,126.5c-0.069,0.07-0.949-0.86-2.63-2.02c-0.83-0.59-1.89-1.19-3.109-1.76
					c-1.23-0.54-2.63-1.04-4.141-1.38c-1.52-0.32-3-0.46-4.34-0.48c-1.34,0.01-2.56,0.11-3.56,0.29c-2.01,0.35-3.2,0.83-3.23,0.74
					c-0.01-0.03,0.271-0.17,0.811-0.39c0.27-0.12,0.6-0.24,1-0.35c0.399-0.11,0.84-0.27,1.359-0.36c1.011-0.24,2.25-0.38,3.63-0.41
					c1.381,0,2.9,0.12,4.45,0.45c1.55,0.35,2.98,0.87,4.23,1.46c1.24,0.61,2.3,1.26,3.12,1.9c0.43,0.29,0.77,0.62,1.08,0.89
					c0.319,0.27,0.56,0.52,0.76,0.74C382.59,126.23,382.79,126.48,382.77,126.5z"/>
			</g>
		</g>
		<g>
			<g>
				<path fill="#3D3A4B" d="M380.29,130.43c-0.07,0.07-0.95-0.86-2.63-2.02c-0.83-0.59-1.891-1.19-3.11-1.76
					c-1.229-0.54-2.63-1.04-4.14-1.38c-1.521-0.32-3-0.46-4.34-0.48c-1.34,0.01-2.561,0.11-3.561,0.29
					c-2.01,0.35-3.2,0.83-3.229,0.74c-0.011-0.03,0.279-0.17,0.81-0.39c0.271-0.12,0.601-0.24,1-0.35c0.4-0.11,0.84-0.27,1.36-0.36
					c1.01-0.24,2.25-0.38,3.63-0.41c1.38,0,2.89,0.12,4.45,0.45c1.55,0.35,2.979,0.87,4.229,1.46c1.24,0.61,2.3,1.26,3.12,1.9
					c0.43,0.3,0.771,0.62,1.08,0.89c0.32,0.26,0.56,0.52,0.76,0.74C380.11,130.16,380.32,130.41,380.29,130.43z"/>
			</g>
		</g>
		<g>
			<g>
				<path fill="none" stroke="#4E585D" stroke-width="0.05" stroke-miterlimit="10" d="M378.52,134.46"/>
			</g>
		</g>
		<g>
			<g>
				<path fill="none" stroke="#4E585D" stroke-width="0.05" stroke-miterlimit="10" d="M357.51,129.84"/>
			</g>
		</g>
		<g>
			<g>
				<path fill="none" stroke="#4E585D" stroke-width="0.05" stroke-miterlimit="10" d="M376.72,138.75"/>
			</g>
		</g>
		<g>
			<g>
				<path fill="none" stroke="#4E585D" stroke-width="0.05" stroke-miterlimit="10" d="M355.71,134.13"/>
			</g>
		</g>
		<g>
			<g>
				<path fill="none" stroke="#4E585D" stroke-width="0.05" stroke-miterlimit="10" d="M374.86,143.66"/>
			</g>
		</g>
		<g>
			<g>
				<path fill="none" stroke="#4E585D" stroke-width="0.05" stroke-miterlimit="10" d="M351.98,138.06"/>
			</g>
		</g>
		<g>
			<g>
				<path fill="#3D3A4B" d="M342.6,135.71c-0.1,0.01-0.1-1.44-0.68-3.66c-0.56-2.21-1.82-5.21-4.15-7.82
					c-2.329-2.61-5.159-4.21-7.289-5.01c-2.15-0.82-3.58-0.99-3.561-1.09c0-0.03,0.36-0.02,1.01,0.07
					c0.641,0.09,1.57,0.29,2.681,0.67c2.21,0.73,5.159,2.32,7.56,5.01s3.64,5.8,4.12,8.08c0.25,1.14,0.34,2.09,0.36,2.74
					C342.67,135.35,342.64,135.71,342.6,135.71z"/>
			</g>
		</g>
		<g>
			<g>
				<path fill="#3D3A4B" d="M345.38,131.24c-0.1,0.01-0.1-1.44-0.68-3.66c-0.561-2.21-1.82-5.21-4.15-7.82
					c-2.33-2.61-5.16-4.2-7.29-5.01c-2.14-0.82-3.58-0.99-3.56-1.09c0-0.03,0.37-0.02,1.01,0.08c0.65,0.09,1.57,0.29,2.68,0.67
					c2.21,0.73,5.16,2.32,7.561,5.01c2.399,2.69,3.64,5.8,4.12,8.08c0.25,1.14,0.34,2.09,0.359,2.74
					C345.44,130.88,345.41,131.24,345.38,131.24z"/>
			</g>
		</g>
		<g>
			<g>
				<path fill="#3D3A4B" d="M348.15,126.77c-0.101,0.01-0.101-1.44-0.681-3.67c-0.56-2.21-1.819-5.21-4.149-7.82
					c-2.33-2.61-5.16-4.2-7.29-5.01c-2.141-0.82-3.58-0.99-3.561-1.09c0-0.03,0.37-0.02,1.011,0.07c0.649,0.09,1.569,0.29,2.68,0.67
					c2.21,0.73,5.16,2.32,7.56,5.01c2.4,2.69,3.641,5.8,4.12,8.08c0.25,1.14,0.34,2.09,0.36,2.74
					C348.21,126.41,348.18,126.77,348.15,126.77z"/>
			</g>
		</g>
		<g>
			<g>
				<path fill="#3D3A4B" d="M350.92,122.3c-0.1,0.01-0.1-1.44-0.68-3.66c-0.561-2.21-1.82-5.21-4.15-7.82
					c-2.33-2.61-5.16-4.2-7.29-5.01c-2.14-0.82-3.58-0.99-3.56-1.09c0-0.03,0.37-0.02,1.01,0.07s1.57,0.29,2.68,0.67
					c2.21,0.73,5.16,2.32,7.561,5.01c2.399,2.69,3.64,5.8,4.12,8.08c0.25,1.14,0.34,2.09,0.359,2.74
					C350.98,121.94,350.95,122.3,350.92,122.3z"/>
			</g>
		</g>
		<g>
			<g>
				<path fill="#3D3A4B" d="M353.69,117.83c-0.101,0.01-0.101-1.44-0.681-3.66c-0.56-2.21-1.819-5.21-4.149-7.82
					s-5.16-4.2-7.29-5.01c-2.141-0.82-3.58-0.99-3.561-1.09c0-0.03,0.37-0.02,1.01,0.07c0.641,0.09,1.57,0.29,2.681,0.67
					c2.21,0.729,5.16,2.32,7.56,5.01c2.4,2.69,3.641,5.8,4.12,8.08c0.25,1.14,0.34,2.09,0.36,2.74
					C353.75,117.47,353.72,117.83,353.69,117.83z"/>
			</g>
		</g>
		<g>
			<g>
				<path fill="#3D3A4B" d="M356.46,113.36c-0.1,0.01-0.1-1.44-0.68-3.66c-0.561-2.21-1.82-5.21-4.15-7.82
					c-2.33-2.61-5.16-4.21-7.29-5.01c-2.14-0.82-3.58-0.99-3.56-1.09c0-0.03,0.359-0.021,1.01,0.07c0.64,0.09,1.57,0.29,2.68,0.67
					c2.21,0.73,5.16,2.32,7.561,5.01c2.399,2.689,3.64,5.8,4.12,8.08c0.25,1.14,0.34,2.09,0.359,2.74
					C356.52,113,356.49,113.36,356.46,113.36z"/>
			</g>
		</g>
	</g>
	<g>
		<path fill="#EBEBEB" d="M358.5,130.43l-6.53,9.44c0,0,9.971-1.18,18.7,4.37l6.05-10.12C376.72,134.13,367.48,126.88,358.5,130.43"
			/>
	</g>
</g>
<g>
	<g>
		<g>
			<path fill="#D9594C" d="M298.05,17.79c0.3-1.47,0.04-3.02-0.569-4.4c-0.601-1.35-1.551-2.56-2.82-3.3
				c-1.35-0.79-3.03-0.98-4.53-0.54c-0.89,0.27-1.71,0.76-2.38,1.41c-0.18-0.82-0.54-1.61-1.061-2.28
				c-0.949-1.24-2.43-2.06-3.989-2.21c-1.46-0.14-2.95,0.29-4.22,1.03c-1.301,0.76-2.41,1.87-3.03,3.23
				c-0.78,1.71-1.06,3.77-0.63,5.6c0.449,1.94,1.6,3.75,2.91,5.25c2.189,2.52,5.119,5.73,5.119,5.73s3.76-1.29,7.01-2.05
				c1.931-0.45,3.931-1.25,5.431-2.56C296.7,21.47,297.68,19.64,298.05,17.79z"/>
		</g>
	</g>
</g>
<g>
	<g>
		<g>
			<path fill="#D9594C" d="M276.26,44.42c-0.24-0.68-0.72-1.25-1.3-1.67c-0.569-0.41-1.26-0.68-1.96-0.67
				c-0.75,0-1.48,0.33-1.99,0.87c-0.3,0.32-0.52,0.73-0.63,1.15c-0.271-0.29-0.61-0.53-0.979-0.68c-0.69-0.28-1.5-0.25-2.17,0.06
				c-0.631,0.3-1.141,0.83-1.48,1.44c-0.35,0.63-0.54,1.35-0.46,2.06c0.101,0.89,0.479,1.8,1.101,2.45
				c0.649,0.68,1.569,1.15,2.459,1.45c1.51,0.5,3.49,1.11,3.49,1.11s1.23-1.44,2.381-2.54c0.68-0.65,1.309-1.47,1.609-2.36
				C276.6,46.25,276.561,45.27,276.26,44.42z"/>
		</g>
	</g>
</g>
<g>
	<g>
		<g>
			<path fill="#D9594C" d="M134.44,192.09c0.16-0.7,0.05-1.44-0.22-2.1c-0.27-0.65-0.71-1.24-1.3-1.6c-0.63-0.39-1.43-0.5-2.15-0.31
				c-0.43,0.12-0.82,0.34-1.15,0.64c-0.08-0.39-0.24-0.77-0.48-1.1c-0.44-0.6-1.13-1.01-1.87-1.1c-0.7-0.09-1.41,0.1-2.02,0.44
				c-0.63,0.35-1.17,0.86-1.48,1.5c-0.39,0.81-0.55,1.78-0.37,2.66c0.19,0.93,0.72,1.81,1.32,2.53c1.02,1.23,2.37,2.79,2.37,2.79
				s1.81-0.57,3.36-0.89c0.93-0.19,1.89-0.55,2.61-1.16C133.76,193.83,134.24,192.96,134.44,192.09z"/>
		</g>
	</g>
</g>
<g>
	<g>
		<g>
			<path fill="#D9594C" d="M333.07,193.31c-0.15-0.42-0.45-0.79-0.82-1.05c-0.36-0.26-0.79-0.42-1.23-0.42
				c-0.47,0-0.93,0.21-1.25,0.55c-0.189,0.2-0.329,0.46-0.399,0.72c-0.17-0.19-0.38-0.33-0.62-0.43c-0.43-0.17-0.94-0.16-1.36,0.04
				c-0.399,0.19-0.72,0.521-0.93,0.91c-0.22,0.39-0.34,0.85-0.29,1.29c0.061,0.56,0.3,1.13,0.69,1.54
				c0.409,0.43,0.979,0.72,1.55,0.91c0.95,0.32,2.189,0.7,2.189,0.7s0.771-0.9,1.5-1.6c0.431-0.41,0.82-0.92,1.011-1.479
				C333.28,194.47,333.25,193.85,333.07,193.31z"/>
		</g>
	</g>
</g>
<g>
	<g>
		<g>
			<path fill="#D9594C" d="M145.45,159.73c-0.15-0.42-0.45-0.79-0.82-1.05c-0.36-0.26-0.79-0.43-1.23-0.42
				c-0.47,0-0.93,0.21-1.25,0.55c-0.19,0.2-0.33,0.46-0.4,0.72c-0.17-0.19-0.38-0.33-0.62-0.43c-0.43-0.17-0.94-0.16-1.36,0.04
				c-0.4,0.19-0.72,0.52-0.93,0.91c-0.22,0.39-0.34,0.85-0.29,1.29c0.06,0.56,0.3,1.13,0.69,1.54c0.41,0.43,0.98,0.72,1.55,0.91
				c0.95,0.32,2.19,0.7,2.19,0.7s0.77-0.9,1.5-1.6c0.43-0.41,0.82-0.92,1.01-1.48C145.66,160.88,145.63,160.26,145.45,159.73z"/>
		</g>
	</g>
</g>
<g>
	<g>
		<g>
			<path fill="#D9594C" d="M320.75,33.82c-0.15-0.42-0.45-0.79-0.82-1.05c-0.359-0.26-0.79-0.42-1.229-0.42
				c-0.47,0-0.931,0.21-1.25,0.55c-0.19,0.2-0.33,0.46-0.4,0.72c-0.17-0.18-0.38-0.33-0.62-0.43c-0.43-0.17-0.939-0.16-1.359,0.04
				c-0.4,0.19-0.721,0.52-0.931,0.91c-0.22,0.39-0.34,0.85-0.29,1.3c0.061,0.56,0.301,1.13,0.69,1.54
				c0.41,0.43,0.979,0.72,1.55,0.91c0.95,0.32,2.19,0.7,2.19,0.7s0.77-0.9,1.5-1.59c0.43-0.41,0.819-0.92,1.01-1.49
				C320.96,34.98,320.93,34.35,320.75,33.82z"/>
		</g>
	</g>
</g>
<g>
	<g>
		<g>
			<path fill="#D9594C" d="M318.76,169.6c0.11-1.3-0.27-2.61-0.939-3.74c-0.65-1.1-1.59-2.05-2.771-2.56
				c-1.25-0.54-2.71-0.54-3.96-0.01c-0.74,0.32-1.399,0.83-1.91,1.45c-0.239-0.69-0.63-1.33-1.14-1.86
				c-0.95-0.97-2.31-1.53-3.67-1.5c-1.28,0.02-2.521,0.54-3.54,1.31c-1.04,0.79-1.89,1.85-2.29,3.1c-0.5,1.56-0.54,3.36,0.02,4.9
				c0.58,1.62,1.761,3.08,3.04,4.24c2.15,1.95,4.99,4.43,4.99,4.43s3.12-1.49,5.851-2.48c1.619-0.59,3.27-1.48,4.43-2.76
				C317.98,172.91,318.63,171.23,318.76,169.6z"/>
		</g>
	</g>
</g>
<rect x="460.827" y="-39.493" fill="#D9594C" width="57.333" height="52.703"/>
<rect x="536.161" y="-39.493" fill="#3D3A4B" width="57.333" height="52.703"/>
<rect x="539.494" y="53.588" fill="#504E5E" width="57.333" height="52.703"/>
</svg>
