<svg xmlns="http://www.w3.org/2000/svg" xml:space="preserve" width="100" height="81.62" x="0" y="0" baseProfile="tiny"
	version="1.2" viewBox="0 0 100 81.62">
	<path
		d="M46.97 21.12V9.34c0-5.16-4.18-9.34-9.34-9.34H9.34C4.18 0 0 4.18 0 9.34v28.29c0 5.16 4.18 9.34 9.34 9.34h8.9c4.03 0 6.74 4.29 4.85 7.85a17.957 17.957 0 0 1-6.06 6.6c-3.59 2.32-4.93 6.94-3.42 10.93l1.25 3.31c1.99 5.25 8.23 7.58 13.08 4.75 11.04-6.43 19.03-17.74 19.03-30.63V21.12zm53.03 0V9.34C100 4.18 95.82 0 90.66 0H62.37c-5.16 0-9.34 4.18-9.34 9.34v28.29c0 5.16 4.18 9.34 9.34 9.34h8.9c4.03 0 6.74 4.29 4.84 7.85a17.957 17.957 0 0 1-6.06 6.6c-3.59 2.32-4.93 6.94-3.42 10.93l1.25 3.31c1.99 5.25 8.23 7.58 13.08 4.75C92 73.97 100 62.66 100 49.78V21.12z"
		fill="#ECB2AE" />
</svg>
